<svg width="69" height="18" viewBox="0 0 69 18" fill="none" xmlns="http://www.w3.org/2000/svg" id="svg-1433373367_2243">
<path fill-rule="evenodd" clip-rule="evenodd" d="M43.2759 5.05578C44.1445 4.15307 45.0803 3.72029 46.2943 3.72029C46.7472 3.72029 47.3507 3.77954 48.0445 3.90104L46.2642 6.24066C46.1136 6.21154 45.9017 6.18141 45.6607 6.18141C44.3333 6.18141 43.4577 7.11124 43.4577 8.58128V15.0017H40.8921V3.93116H43.2759V5.05578ZM65.4571 3.93016H68.4153L64.215 9.51713L68.4143 15.0017H65.3657L62.7098 11.4993L60.0539 15.0017H57.0365L61.2096 9.50909L57.0365 3.93016H59.9946L62.7259 7.541L65.4571 3.93016ZM14.3376 1.7209C14.4031 1.63269 14.4726 1.53911 14.5468 1.43992C15.2105 0.540221 16.296 0 17.4126 0H22.3921V15.0007H9.74707C8.99594 15.0007 8.80103 15.2658 8.18723 16.1008C8.08633 16.238 7.97412 16.3907 7.84626 16.5601C7.1524 17.4598 6.06594 18 4.94935 18H0V2.99933H12.6149C13.3886 2.99933 13.6309 2.673 14.3376 1.7209ZM13.1872 11.1308H18.4689V3.93016H14.0327C13.2543 3.93016 12.9997 4.25954 12.1877 5.31034C12.1502 5.35882 12.1116 5.40885 12.0716 5.46045C11.3778 6.36015 10.3214 6.90037 9.17472 6.90037H3.893V14.101H8.35836C9.12367 14.101 9.34433 13.8056 10.051 12.8597C10.1251 12.7606 10.2044 12.6543 10.2903 12.5406C10.9842 11.6107 12.0405 11.1308 13.1872 11.1308ZM39.3227 4.23039C39.3227 5.70044 38.5394 6.811 37.4218 7.44059C39.0515 8.21979 39.6852 9.42073 39.6852 10.8004C39.6852 13.14 37.8737 15.0007 35.2489 15.0007H28.0061V0H35.2489C37.6628 0 39.3227 2.07051 39.3227 4.23039ZM35.038 2.33962H30.5717V6.23965H34.8874C35.8223 6.23965 36.8184 5.46045 36.8184 4.31976C36.8184 3.38994 36.1546 2.33962 35.038 2.33962ZM30.5707 12.66H34.8864C35.9438 12.66 37.1196 11.7302 37.1196 10.5895C37.1196 9.56934 36.1838 8.57927 35.037 8.57927H30.5707V12.66ZM52.3301 12.8698C53.2358 12.8698 54.0502 12.4802 54.4729 11.8195H57.2202C56.6469 14.0999 54.6547 15.2094 52.3914 15.2094C49.1621 15.2094 47.0805 13.0485 47.0805 9.47886C47.0805 5.90919 49.1932 3.71918 52.3311 3.71918C55.469 3.71918 57.5516 6.02968 57.5516 9.3895C57.5516 9.7801 57.5215 9.98996 57.401 10.4398H49.7354C49.7354 11.9099 50.9123 12.8698 52.3301 12.8698ZM54.8053 8.31006C54.8354 6.95951 53.7489 6.05981 52.3301 6.05981C50.9123 6.05981 49.7646 6.99063 49.7656 8.31006H54.8053Z" fill="white"></path>
</svg>