<svg width="18" height="21" viewBox="0 0 18 21" fill="none" xmlns="http://www.w3.org/2000/svg" id="svg1218208544_12283">
<g clip-path="url(#svg1218208544_12283_clip0_68_6863)">
<ellipse cx="10.4565" cy="7.63843" rx="7.31563" ry="3.27751" transform="rotate(45 10.4565 7.63843)" fill="url(#svg1218208544_12283_paint0_radial_68_6863)"></ellipse>
<path fill-rule="evenodd" clip-rule="evenodd" d="M13.1998 4.08748L10.9498 7.08748L10.0498 6.41248L12.2998 3.41248L13.1998 4.08748Z" fill="url(#svg1218208544_12283_paint1_linear_68_6863)"></path>
<path fill-rule="evenodd" clip-rule="evenodd" d="M17.5229 11.5914L14.5229 12.3414L14.25 11.25L17.25 10.5L17.5229 11.5914Z" fill="url(#svg1218208544_12283_paint2_linear_68_6863)"></path>
<path fill-rule="evenodd" clip-rule="evenodd" d="M1.90447 0.733935L4.05398 2.95701L3.24522 3.73901L1.0957 1.51594L1.90447 0.733935Z" fill="url(#svg1218208544_12283_paint3_linear_68_6863)"></path>
<path fill-rule="evenodd" clip-rule="evenodd" d="M16.2955 13.3636L17.0455 16.3636L15.9541 16.6365L15.2041 13.6365L16.2955 13.3636Z" fill="url(#svg1218208544_12283_paint4_linear_68_6863)"></path>
<path fill-rule="evenodd" clip-rule="evenodd" d="M14.1589 0.59712L14.2213 0.635962C15.4934 1.42764 15.882 3.1012 15.0889 4.37244L14.1344 3.77695C14.5984 3.03327 14.3711 2.05424 13.6269 1.59111L13.5645 1.55226L14.1589 0.59712Z" fill="url(#svg1218208544_12283_paint5_linear_68_6863)"></path>
<path fill-rule="evenodd" clip-rule="evenodd" d="M15.0582 14.8924L15.0287 15.0467C14.8481 15.9938 14.0639 16.7078 13.1042 16.7993L12.9975 15.6793C13.4593 15.6353 13.8367 15.2917 13.9237 14.8359L13.9531 14.6816L15.0582 14.8924Z" fill="url(#svg1218208544_12283_paint6_linear_68_6863)"></path>
<path fill-rule="evenodd" clip-rule="evenodd" d="M9.43407 0.53074L9.56402 0.442423C10.3614 -0.0994805 11.4208 -0.0499188 12.1641 0.564064L11.4477 1.43143C11.0899 1.13595 10.5801 1.1121 10.1964 1.37289L10.0664 1.46121L9.43407 0.53074Z" fill="url(#svg1218208544_12283_paint7_linear_68_6863)"></path>
<path fill-rule="evenodd" clip-rule="evenodd" d="M2.76997 5.78942L0.714309 5.78765L0.71528 4.66265L2.77094 4.66442L2.76997 5.78942Z" fill="url(#svg1218208544_12283_paint8_linear_68_6863)"></path>
<path fill-rule="evenodd" clip-rule="evenodd" d="M10.2986 9.62217C9.52979 9.894 9.10292 10.7149 9.32198 11.5005L8.23833 11.8027C7.86032 10.4472 8.59692 9.03057 9.92364 8.56151L10.1836 8.46958L10.5586 9.53024L10.2986 9.62217Z" fill="url(#svg1218208544_12283_paint9_linear_68_6863)"></path>
<rect x="7.125" y="0.283936" width="2.25" height="2.25" transform="rotate(45 7.125 0.283936)" fill="url(#svg1218208544_12283_paint10_linear_68_6863)"></rect>
<rect x="15.0371" y="7.08813" width="2.25" height="2.25" transform="rotate(60 15.0371 7.08813)" fill="url(#svg1218208544_12283_paint11_linear_68_6863)"></rect>
<rect x="8.72559" y="3.47546" width="1.5" height="1.5" transform="rotate(-30 8.72559 3.47546)" fill="url(#svg1218208544_12283_paint12_linear_68_6863)"></rect>
<rect x="11.2139" y="10.7744" width="1.5" height="1.5" transform="rotate(-45 11.2139 10.7744)" fill="url(#svg1218208544_12283_paint13_linear_68_6863)"></rect>
<rect x="16.8105" y="4.5" width="1.5" height="1.5" transform="rotate(45 16.8105 4.5)" fill="url(#svg1218208544_12283_paint14_linear_68_6863)"></rect>
<rect x="6.96973" y="5.08142" width="1.5" height="1.5" transform="rotate(15 6.96973 5.08142)" fill="url(#svg1218208544_12283_paint15_linear_68_6863)"></rect>
<path fill-rule="evenodd" clip-rule="evenodd" d="M4.80592 3.5283L1.76036 15.4337C1.61914 15.9857 2.12081 16.4874 2.67283 16.3462L14.7022 13.2689C13.1033 13.5534 10.4576 12.2745 8.13899 9.95592C5.8848 7.70173 4.61334 5.13833 4.80592 3.5283Z" fill="url(#svg1218208544_12283_paint16_linear_68_6863)"></path>
<path fill-rule="evenodd" clip-rule="evenodd" d="M4.80592 3.5283L1.76036 15.4337C1.61914 15.9857 2.12081 16.4874 2.67283 16.3462L14.7022 13.2689C13.1033 13.5534 10.4576 12.2745 8.13899 9.95592C5.8848 7.70173 4.61334 5.13833 4.80592 3.5283Z" fill="url(#svg1218208544_12283_paint17_linear_68_6863)"></path>
<path fill-rule="evenodd" clip-rule="evenodd" d="M4.80592 3.5283L1.76036 15.4337C1.61914 15.9857 2.12081 16.4874 2.67283 16.3462L14.7022 13.2689C13.1033 13.5534 10.4576 12.2745 8.13899 9.95592C5.8848 7.70173 4.61334 5.13833 4.80592 3.5283Z" fill="url(#svg1218208544_12283_paint18_linear_68_6863)"></path>
<g opacity="0.7">
<mask id="svg1218208544_12283_mask0_68_6863" style="mask-type:alpha" maskUnits="userSpaceOnUse" x="1" y="3" width="14" height="14">
<path fill-rule="evenodd" clip-rule="evenodd" d="M4.80592 3.52818L1.76036 15.4336C1.61914 15.9856 2.12081 16.4873 2.67283 16.3461L14.7022 13.2688C13.1033 13.5533 10.4576 12.2744 8.13899 9.9558C5.8848 7.70161 4.61334 5.1382 4.80592 3.52818Z" fill="url(#svg1218208544_12283_paint19_linear_68_6863)"></path>
<path fill-rule="evenodd" clip-rule="evenodd" d="M4.80592 3.52818L1.76036 15.4336C1.61914 15.9856 2.12081 16.4873 2.67283 16.3461L14.7022 13.2688C13.1033 13.5533 10.4576 12.2744 8.13899 9.9558C5.8848 7.70161 4.61334 5.1382 4.80592 3.52818Z" fill="url(#svg1218208544_12283_paint20_linear_68_6863)"></path>
<path fill-rule="evenodd" clip-rule="evenodd" d="M4.80592 3.52818L1.76036 15.4336C1.61914 15.9856 2.12081 16.4873 2.67283 16.3461L14.7022 13.2688C13.1033 13.5533 10.4576 12.2744 8.13899 9.9558C5.8848 7.70161 4.61334 5.1382 4.80592 3.52818Z" fill="url(#svg1218208544_12283_paint21_linear_68_6863)"></path>
</mask>
<g mask="url(#svg1218208544_12283_mask0_68_6863)">
<g filter="url(#svg1218208544_12283_filter0_f_68_6863)">
<path fill-rule="evenodd" clip-rule="evenodd" d="M6.71051 4.33807L4.13952 13.0482C3.97128 13.6182 4.50119 14.1481 5.07117 13.9799L13.8747 11.3813C12.6572 11.6471 10.6996 10.7657 9.02248 9.08862C7.39132 7.45746 6.51293 5.56095 6.71051 4.33807Z" fill="url(#svg1218208544_12283_paint22_linear_68_6863)"></path>
</g>
</g>
</g>
<path opacity="0.6" fill-rule="evenodd" clip-rule="evenodd" d="M2.36145 13.0824L2.02071 14.4144C2.28058 14.7061 2.55116 14.9929 2.83231 15.274C3.11336 15.5551 3.40004 15.8256 3.69164 16.0853L5.02358 15.7446C4.54613 15.3526 4.07972 14.9305 3.62781 14.4785C3.17578 14.0265 2.75352 13.56 2.36145 13.0824ZM2.78734 11.4176C3.29695 12.1586 3.88943 12.8734 4.56123 13.5452C5.23288 14.2168 5.94755 14.8092 6.68835 15.3187L8.18539 14.9358C7.1993 14.3642 6.24088 13.6339 5.35672 12.7497C4.4724 11.8654 3.74193 10.9068 3.17032 9.92048L2.78734 11.4176ZM3.6502 8.04458C4.26104 9.33359 5.16594 10.62 6.32607 11.7801C7.48615 12.9402 8.77245 13.845 10.0614 14.4559L11.946 13.9738C10.3661 13.5213 8.64263 12.5057 7.12157 10.9846C5.60041 9.46345 4.58471 7.73985 4.13232 6.15991L3.6502 8.04458Z" fill="url(#svg1218208544_12283_paint23_linear_68_6863)"></path>
</g>
<defs>
<filter id="svg1218208544_12283_filter0_f_68_6863" x="1.85791" y="2.08801" width="14.2666" height="14.1736" filterUnits="userSpaceOnUse" color-interpolation-filters="sRGB">
<feFlood flood-opacity="0" result="BackgroundImageFix"></feFlood>
<feBlend mode="normal" in="SourceGraphic" in2="BackgroundImageFix" result="shape"></feBlend>
<feGaussianBlur stdDeviation="1.125" result="effect1_foregroundBlur_68_6863"></feGaussianBlur>
</filter>
<radialGradient id="svg1218208544_12283_paint0_radial_68_6863" cx="0" cy="0" r="1" gradientUnits="userSpaceOnUse" gradientTransform="translate(10.4565 5.98585) rotate(90) scale(4.93009 11.0043)">
<stop stop-color="#8E328D"></stop>
<stop offset="1" stop-color="#441F43"></stop>
</radialGradient>
<linearGradient id="svg1218208544_12283_paint1_linear_68_6863" x1="13.1998" y1="3.88634" x2="9.98072" y2="6.50276" gradientUnits="userSpaceOnUse">
<stop stop-color="#FA9DA9"></stop>
<stop offset="1" stop-color="#FFC612"></stop>
</linearGradient>
<linearGradient id="svg1218208544_12283_paint2_linear_68_6863" x1="17.5229" y1="10.7374" x2="16.0767" y2="13.1748" gradientUnits="userSpaceOnUse">
<stop stop-color="#FA9DA9"></stop>
<stop offset="1" stop-color="#FFC612"></stop>
</linearGradient>
<linearGradient id="svg1218208544_12283_paint3_linear_68_6863" x1="2.74436" y1="3.78044" x2="2.20237" y2="1.02619" gradientUnits="userSpaceOnUse">
<stop offset="0.145833" stop-color="#804ED0"></stop>
<stop offset="1" stop-color="#CA5D80"></stop>
</linearGradient>
<linearGradient id="svg1218208544_12283_paint4_linear_68_6863" x1="15.4996" y1="16.4219" x2="16.4074" y2="13.7657" gradientUnits="userSpaceOnUse">
<stop offset="0.145833" stop-color="#804ED0"></stop>
<stop offset="1" stop-color="#CA5D80"></stop>
</linearGradient>
<linearGradient id="svg1218208544_12283_paint5_linear_68_6863" x1="13.8751" y1="4.12494" x2="15.0001" y2="1.12494" gradientUnits="userSpaceOnUse">
<stop offset="0.145833" stop-color="#804ED0"></stop>
<stop offset="1" stop-color="#CA5D80"></stop>
</linearGradient>
<linearGradient id="svg1218208544_12283_paint6_linear_68_6863" x1="12.7504" y1="16.125" x2="14.6254" y2="15" gradientUnits="userSpaceOnUse">
<stop stop-color="#FA9DA9"></stop>
<stop offset="1" stop-color="#FFC612"></stop>
<stop offset="1" stop-color="#FFC612"></stop>
</linearGradient>
<linearGradient id="svg1218208544_12283_paint7_linear_68_6863" x1="11.9375" y1="1.291" x2="9.81618" y2="0.760666" gradientUnits="userSpaceOnUse">
<stop stop-color="#FA9DA9"></stop>
<stop offset="1" stop-color="#FFC612"></stop>
<stop offset="1" stop-color="#FFC612"></stop>
</linearGradient>
<linearGradient id="svg1218208544_12283_paint8_linear_68_6863" x1="0.709009" y1="4.7883" x2="2.53313" y2="5.24908" gradientUnits="userSpaceOnUse">
<stop stop-color="#FA9DA9"></stop>
<stop offset="1" stop-color="#FFC612"></stop>
<stop offset="1" stop-color="#FFC612"></stop>
</linearGradient>
<linearGradient id="svg1218208544_12283_paint9_linear_68_6863" x1="10.0891" y1="8.37507" x2="9.74747" y2="10.4598" gradientUnits="userSpaceOnUse">
<stop stop-color="#CA5D80"></stop>
<stop offset="1" stop-color="#521AAB"></stop>
</linearGradient>
<linearGradient id="svg1218208544_12283_paint10_linear_68_6863" x1="9.375" y1="0.574056" x2="7.36448" y2="2.48053" gradientUnits="userSpaceOnUse">
<stop stop-color="#FA9DA9"></stop>
<stop offset="1" stop-color="#FFC612"></stop>
</linearGradient>
<linearGradient id="svg1218208544_12283_paint11_linear_68_6863" x1="15.4256" y1="6.48886" x2="16.9489" y2="9.1004" gradientUnits="userSpaceOnUse">
<stop stop-color="#C55C85"></stop>
<stop offset="1" stop-color="#521AAB"></stop>
</linearGradient>
<linearGradient id="svg1218208544_12283_paint12_linear_68_6863" x1="8.68009" y1="4.63273" x2="10.2711" y2="3.57207" gradientUnits="userSpaceOnUse">
<stop stop-color="#BF8310"></stop>
<stop offset="1" stop-color="#FA9DA9"></stop>
</linearGradient>
<linearGradient id="svg1218208544_12283_paint13_linear_68_6863" x1="11.1684" y1="11.9317" x2="12.8671" y2="11.7148" gradientUnits="userSpaceOnUse">
<stop stop-color="#BF8310"></stop>
<stop offset="1" stop-color="#FA9DA9"></stop>
</linearGradient>
<linearGradient id="svg1218208544_12283_paint14_linear_68_6863" x1="18.3105" y1="4.69341" x2="16.9702" y2="5.9644" gradientUnits="userSpaceOnUse">
<stop stop-color="#FA9DA9"></stop>
<stop offset="1" stop-color="#FFC612"></stop>
</linearGradient>
<linearGradient id="svg1218208544_12283_paint15_linear_68_6863" x1="8.46973" y1="5.27483" x2="6.96973" y2="6.77483" gradientUnits="userSpaceOnUse">
<stop stop-color="#CA5D80"></stop>
<stop offset="1" stop-color="#521AAB"></stop>
</linearGradient>
<linearGradient id="svg1218208544_12283_paint16_linear_68_6863" x1="2.99979" y1="11.9998" x2="6.74987" y2="15.3749" gradientUnits="userSpaceOnUse">
<stop stop-color="#F195F0"></stop>
<stop offset="1" stop-color="#FAB562"></stop>
</linearGradient>
<linearGradient id="svg1218208544_12283_paint17_linear_68_6863" x1="1.49978" y1="11.9998" x2="6.74987" y2="13.4997" gradientUnits="userSpaceOnUse">
<stop offset="0.112864" stop-color="#4A2149"></stop>
<stop offset="0.277273" stop-color="#9D0D9B" stop-opacity="0.68"></stop>
<stop offset="1" stop-color="#A918A6" stop-opacity="0"></stop>
</linearGradient>
<linearGradient id="svg1218208544_12283_paint18_linear_68_6863" x1="7.49987" y1="15.7499" x2="5.99993" y2="9.74979" gradientUnits="userSpaceOnUse">
<stop offset="0.0304989" stop-color="#4A2149"></stop>
<stop offset="0.25525" stop-color="#9D0D9B" stop-opacity="0.68"></stop>
<stop offset="1" stop-color="#A918A6" stop-opacity="0"></stop>
</linearGradient>
<linearGradient id="svg1218208544_12283_paint19_linear_68_6863" x1="2.99979" y1="11.9997" x2="6.74987" y2="15.3747" gradientUnits="userSpaceOnUse">
<stop stop-color="#F195F0"></stop>
<stop offset="1" stop-color="#FAB562"></stop>
</linearGradient>
<linearGradient id="svg1218208544_12283_paint20_linear_68_6863" x1="1.49978" y1="11.9996" x2="6.74987" y2="13.4996" gradientUnits="userSpaceOnUse">
<stop offset="0.112864" stop-color="#4A2149"></stop>
<stop offset="0.277273" stop-color="#9D0D9B" stop-opacity="0.68"></stop>
<stop offset="1" stop-color="#A918A6" stop-opacity="0"></stop>
</linearGradient>
<linearGradient id="svg1218208544_12283_paint21_linear_68_6863" x1="7.49987" y1="15.7498" x2="5.99993" y2="9.74967" gradientUnits="userSpaceOnUse">
<stop offset="0.0304989" stop-color="#4A2149"></stop>
<stop offset="0.25525" stop-color="#9D0D9B" stop-opacity="0.68"></stop>
<stop offset="1" stop-color="#A918A6" stop-opacity="0"></stop>
</linearGradient>
<linearGradient id="svg1218208544_12283_paint22_linear_68_6863" x1="5.19099" y1="10.68" x2="7.48586" y2="13.0021" gradientUnits="userSpaceOnUse">
<stop stop-color="#F195F0"></stop>
<stop offset="1" stop-color="#FAB562"></stop>
</linearGradient>
<linearGradient id="svg1218208544_12283_paint23_linear_68_6863" x1="3.37469" y1="11.9998" x2="7.12478" y2="16.4999" gradientUnits="userSpaceOnUse">
<stop stop-color="#830D81"></stop>
<stop offset="0.474898" stop-color="#901A66" stop-opacity="0.49"></stop>
<stop offset="1" stop-color="#671E0E"></stop>
</linearGradient>
<clipPath id="svg1218208544_12283_clip0_68_6863">
<rect width="18" height="18" fill="white"></rect>
</clipPath>
</defs>
</svg>