<svg width="35" height="12" viewBox="0 0 35 12" fill="none" xmlns="http://www.w3.org/2000/svg" id="svg-135744029_2008">
<path d="M0 7.32666C0 10.2087 1.99161 12 4.51179 12C5.39748 12 6.28317 11.7855 6.92897 11.3015V9.04938C6.34348 9.57271 5.58519 9.86051 4.80047 9.85712C3.49125 9.85712 2.44699 8.91838 2.44699 7.33277C2.44699 5.74716 3.45466 4.85457 4.7388 4.82606H4.80047C5.58925 4.81045 6.35432 5.09689 6.93981 5.62702V3.37078C6.29807 2.87595 5.40832 2.68726 4.52263 2.68726C1.99161 2.68726 0 4.47853 0 7.32666ZM12.0635 2.68726C9.49658 2.68726 7.70352 4.59868 7.70352 7.32666C7.70352 10.0546 9.49184 12 12.0635 12C14.6352 12 16.4384 10.0716 16.4384 7.32666C16.4384 4.58171 14.6521 2.68726 12.0635 2.68726ZM12.0635 9.9026C10.8376 9.9026 10.1553 8.8315 10.1553 7.33141C10.1553 5.83133 10.8376 4.77312 12.0635 4.77312C13.2894 4.77312 13.9697 5.84422 13.9697 7.33141C13.9697 8.8186 13.3063 9.9026 12.0635 9.9026ZM23.4616 3.626C22.8713 3.01918 22.0588 2.67979 21.2131 2.68726C18.6245 2.68726 17.1615 4.78534 17.1615 7.32666C17.1615 9.86798 18.6245 12 21.2131 12C22.0575 12 22.8666 11.662 23.4616 11.0613V11.7964H25.9303V0H23.4616V3.626ZM23.4616 8.81181C23.135 9.44171 22.4844 9.83676 21.7756 9.83404C20.4298 9.83404 19.6362 8.76226 19.6362 7.32666C19.6362 5.89106 20.4366 4.83693 21.7756 4.83693C22.4885 4.83828 23.1397 5.24079 23.4616 5.87816V8.81181ZM30.8703 2.68726C29.679 2.68726 28.5385 3.01307 27.89 3.42237V5.56525C28.6131 5.08807 29.4588 4.83285 30.3248 4.83014C31.5846 4.83014 32.3185 5.37655 32.3185 6.24673V6.74156C31.9593 6.4843 31.0906 6.21212 30.3248 6.21212C28.3671 6.21212 26.8871 7.37146 26.8871 9.07721C26.8871 10.9201 28.3678 11.9593 30.173 11.9593C31.1421 11.9593 32.0277 11.6185 32.3124 11.3294V11.8072H34.6957V6.09876C34.7018 3.93212 33.3051 2.68726 30.8703 2.68726ZM32.3185 9.37315C32.1043 9.85101 31.4497 10.1422 30.7504 10.1422C29.9677 10.1422 29.1674 9.81639 29.1674 9.04938C29.1674 8.28237 29.9677 7.9586 30.7504 7.9586C31.4497 7.9586 32.0962 8.24775 32.3185 8.72561V9.37248V9.37315Z" fill="white"></path>
</svg>