<svg width="90" height="12" viewBox="0 0 90 12" fill="none" xmlns="http://www.w3.org/2000/svg" id="svg1573434817_3558">
<path fill-rule="evenodd" clip-rule="evenodd" d="M15.3881 7.6933C16.0724 9.3245 17.6731 10.3818 19.442 10.3712C21.8456 10.3606 23.7873 8.40705 23.7833 6.00351C23.7833 4.23456 22.7162 2.64031 21.0809 1.96586C19.4456 1.2914 17.5649 1.66994 16.3179 2.92456C15.0709 4.17917 14.7037 6.06209 15.3881 7.6933ZM13.8801 3.67997C14.818 1.44036 17.014 -0.0125444 19.442 8.16374e-05C22.7415 0.017239 25.4071 2.69682 25.4071 5.99631C25.407 8.42439 23.9427 10.6128 21.6982 11.539C19.4538 12.4653 16.8723 11.9465 15.1598 10.2251C13.4474 8.50376 12.9421 5.91957 13.8801 3.67997ZM41.4578 0.422222C41.4861 0.375014 41.537 0.345946 41.5921 0.34547C41.6353 0.34483 41.6771 0.361401 41.7081 0.391539C41.7392 0.421677 41.7569 0.462912 41.7576 0.506169V11.6424H40.1314V5.0657L35.4064 11.4457C35.3827 11.4742 35.3475 11.4907 35.3104 11.4907C35.2733 11.4907 35.2382 11.4742 35.2145 11.4457L30.4895 5.0657V11.6424H28.8633V0.506169C28.8646 0.417031 28.9372 0.345461 29.0264 0.34547C29.0823 0.345106 29.1343 0.374283 29.1631 0.422222L35.3104 8.78097L41.4578 0.422222ZM51.6993 5.95805H47.9097V1.97655H51.6993C52.7974 1.97655 53.6877 2.86676 53.6877 3.9649C53.6877 5.06303 52.7974 5.95325 51.6993 5.95325V5.95805ZM51.6993 0.340778H46.2787V11.6377H47.9049V7.59382H51.6945C53.6961 7.59382 55.3186 5.97124 55.3186 3.9697C55.3186 1.96815 53.6961 0.345575 51.6945 0.345575L51.6993 0.340778ZM1.73108 6.96936C2.18421 8.96795 3.96594 10.3827 6.01522 10.3712C7.36149 10.3713 8.63073 9.7433 9.44746 8.67307L10.6155 9.82675C9.00353 11.7744 6.3431 12.5017 3.96443 11.6451C1.58577 10.7884 0 8.53178 0 6.00355C0 3.47533 1.58577 1.21873 3.96443 0.362049C6.3431 -0.494629 9.00353 0.232694 10.6155 2.18036L9.44746 3.33403C8.19489 1.71208 5.98307 1.1791 4.12919 2.0525C2.27531 2.92589 1.27796 4.97077 1.73108 6.96936ZM74.5977 4.96273L73.3529 4.67971C72.0145 4.39189 71.9138 3.48046 71.9138 3.19504C71.9138 2.27162 72.6502 1.74156 73.9333 1.74156C75.2525 1.74156 76.2167 2.63619 76.5117 2.9408L77.6558 1.81591C76.5813 0.688619 75.3652 0.136966 73.9333 0.136966C71.7531 0.136966 70.2876 1.36259 70.2876 3.18785C70.2876 3.76828 70.2876 5.53357 73.2186 6.25552L74.5809 6.57692C75.8449 6.9247 76.459 7.53631 76.459 8.44294C76.459 9.50547 75.4348 10.2466 73.9717 10.2466C72.4055 10.2466 71.4413 9.16969 71.1535 8.80751L70.0238 9.92041C70.7937 10.7983 72.1081 11.8392 73.9885 11.8392C76.3318 11.8392 78.0995 10.3761 78.0995 8.43815C78.0995 6.70164 76.9003 5.49759 74.6097 4.95793L74.5977 4.96273ZM84.2971 4.67971L85.5419 4.96273H85.5443C87.8349 5.50239 89.0341 6.70643 89.0341 8.44294C89.0341 10.3809 87.2664 11.844 84.9231 11.844C83.0427 11.844 81.7283 10.8031 80.9584 9.92521L82.1049 8.80032C82.3903 9.16249 83.3569 10.2394 84.9231 10.2394C86.3862 10.2394 87.4079 9.49828 87.4079 8.43575C87.4079 7.52912 86.7939 6.9175 85.5323 6.56972L84.1628 6.25552C81.2318 5.53357 81.2318 3.76828 81.2318 3.18785C81.2318 1.36259 82.6973 0.136966 84.8775 0.136966C86.307 0.136966 87.5255 0.688619 88.6 1.81591L87.4535 2.9408C87.1609 2.63619 86.1967 1.74156 84.8775 1.74156C83.5943 1.74156 82.858 2.27162 82.858 3.19504C82.858 3.48046 82.9587 4.39189 84.2971 4.67971ZM60.0627 7.11183L61.9239 3.56206L63.7876 7.11183H60.0627ZM61.9239 0.244949C61.86 0.245515 61.8021 0.282866 61.7752 0.340888L55.8486 11.6426H57.6882L59.204 8.7476H64.6414L66.1597 11.6426H67.9969L62.0726 0.340888C62.0453 0.28326 61.9877 0.246088 61.9239 0.244949ZM18.0269 8.57242L16.878 7.41635L20.8523 3.41806L22.0036 4.57414L18.0269 8.57242Z" fill="white"></path>
</svg>