<svg width="35" height="12" viewBox="0 0 35 12" fill="none" xmlns="http://www.w3.org/2000/svg" id="svg570375995_4655">
<path d="M29.5497 12C29.4971 12 29.4543 11.9576 29.4543 11.9053V0.506014C29.4543 0.461187 29.4861 0.422512 29.5303 0.413373L31.5213 0.00202067C31.5806 -0.0102117 31.6362 0.0346433 31.6362 0.0946604V11.9053C31.6362 11.9576 31.5934 12 31.5408 12H29.5497Z" fill="white"></path>
<path d="M3.95808 12C3.20108 12 2.52517 11.8139 1.93038 11.4417C1.33559 11.0694 0.865158 10.5603 0.519092 9.91437C0.173031 9.26847 0 8.53496 0 7.71384C0 6.89276 0.173031 6.16471 0.519092 5.52973C0.865158 4.88379 1.33559 4.38018 1.93038 4.01889C2.52517 3.64666 3.20108 3.46055 3.95808 3.46055C4.5637 3.46055 5.09361 3.5755 5.54781 3.80541C5.91188 3.9897 6.22039 4.23377 6.47325 4.53763C6.5306 4.60654 6.65087 4.56756 6.65087 4.47771V0.487878C6.65087 0.444656 6.68107 0.407366 6.72312 0.398557L8.618 0.00194823C8.67435 -0.0098456 8.72726 0.0334014 8.72726 0.0912673V11.7117C8.72726 11.7621 8.6866 11.8029 8.63653 11.8029H6.95266C6.90931 11.8029 6.87195 11.772 6.86363 11.7292L6.69108 10.8433C6.67579 10.7649 6.57355 10.7417 6.52287 10.8031C6.28108 11.0964 5.9777 11.3585 5.61268 11.5894C5.19092 11.8631 4.63939 12 3.95808 12ZM4.39607 10.1607C5.06655 10.1607 5.61268 9.93631 6.03445 9.48743C6.46702 9.02762 6.68331 8.44189 6.68331 7.73027C6.68331 7.01865 6.46702 6.43842 6.03445 5.98954C5.61268 5.52973 5.06655 5.29981 4.39607 5.29981C3.73639 5.29981 3.19026 5.52422 2.75768 5.97311C2.32511 6.42199 2.10882 7.00221 2.10882 7.71384C2.10882 8.42546 2.32511 9.01119 2.75768 9.471C3.19026 9.9308 3.73639 10.1607 4.39607 10.1607Z" fill="white"></path>
<path d="M14.2507 12.0001C13.3884 12.0001 12.6237 11.8211 11.9568 11.4631C11.2899 11.105 10.7667 10.6015 10.3873 9.95255C10.0079 9.30361 9.81812 8.55396 9.81812 7.70362C9.81812 6.84206 10.0021 6.07562 10.3701 5.4043C10.7495 4.73296 11.2669 4.21269 11.9223 3.84345C12.5893 3.46304 13.3711 3.27283 14.268 3.27283C15.1074 3.27283 15.849 3.45185 16.4929 3.80989C17.1368 4.16793 17.637 4.66024 17.9934 5.28681C18.3614 5.90217 18.5454 6.59033 18.5454 7.35114C18.5454 7.47421 18.5396 7.60292 18.5281 7.73715C18.5281 7.84471 18.5245 7.95585 18.517 8.07058C18.5139 8.11921 18.4719 8.15674 18.4215 8.15674H12.1119C12.056 8.15674 12.0117 8.20256 12.0172 8.25631C12.0788 8.85801 12.3059 9.33386 12.6985 9.68404C13.1239 10.0533 13.6356 10.2379 14.2335 10.2379C14.6819 10.2379 15.0556 10.1427 15.3546 9.95255C15.6471 9.76282 15.8681 9.52339 16.0178 9.23434C16.0346 9.20178 16.0686 9.18053 16.1062 9.18053H18.1575C18.222 9.18053 18.2683 9.24048 18.2481 9.29966C18.084 9.77926 17.8267 10.2207 17.476 10.6239C17.1081 11.049 16.6482 11.3847 16.0962 11.6309C15.5558 11.877 14.9407 12.0001 14.2507 12.0001ZM14.268 5.01829C13.7276 5.01829 13.2504 5.16932 12.8364 5.47142C12.448 5.74444 12.1911 6.15543 12.066 6.70434C12.053 6.76122 12.0987 6.81411 12.1589 6.81411H16.2007C16.2563 6.81411 16.3005 6.76875 16.295 6.7153C16.2429 6.21318 16.0386 5.80971 15.6823 5.505C15.3029 5.18053 14.8314 5.01829 14.268 5.01829Z" fill="white"></path>
<path d="M24.0691 12.0001C23.2067 12.0001 22.4421 11.8211 21.7752 11.4631C21.1082 11.105 20.5851 10.6015 20.2056 9.95255C19.8262 9.30361 19.6365 8.55396 19.6365 7.70362C19.6365 6.84206 19.8205 6.07562 20.1884 5.4043C20.5678 4.73296 21.0853 4.21269 21.7407 3.84345C22.4076 3.46304 23.1895 3.27283 24.0864 3.27283C24.9257 3.27283 25.6674 3.45185 26.3113 3.80989C26.9552 4.16793 27.4554 4.66024 27.8118 5.28681C28.1798 5.90217 28.3637 6.59033 28.3637 7.35114C28.3637 7.47421 28.358 7.60292 28.3465 7.73715C28.3465 7.84471 28.3428 7.95585 28.3354 8.07058C28.3323 8.11921 28.2903 8.15674 28.2399 8.15674H21.9302C21.8744 8.15674 21.83 8.20256 21.8355 8.25631C21.8972 8.85801 22.1243 9.33386 22.5168 9.68404C22.9423 10.0533 23.454 10.2379 24.0518 10.2379C24.5003 10.2379 24.874 10.1427 25.173 9.95255C25.4654 9.76282 25.6865 9.52339 25.8361 9.23434C25.853 9.20178 25.887 9.18053 25.9246 9.18053H27.9759C28.0404 9.18053 28.0867 9.24048 28.0664 9.29966C27.9024 9.77926 27.645 10.2207 27.2944 10.6239C26.9265 11.049 26.4665 11.3847 25.9146 11.6309C25.3742 11.877 24.759 12.0001 24.0691 12.0001ZM24.0864 5.01829C23.5459 5.01829 23.0688 5.16932 22.6548 5.47142C22.2663 5.74444 22.0095 6.15543 21.8843 6.70434C21.8714 6.76122 21.917 6.81411 21.9773 6.81411H26.019C26.0746 6.81411 26.1189 6.76875 26.1134 6.7153C26.0613 6.21318 25.857 5.80971 25.5007 5.505C25.1212 5.18053 24.6498 5.01829 24.0864 5.01829Z" fill="white"></path>
<path d="M33.818 11.9999C34.4204 11.9999 34.9089 11.5115 34.9089 10.909C34.9089 10.3065 34.4204 9.81812 33.818 9.81812C33.2155 9.81812 32.7271 10.3065 32.7271 10.909C32.7271 11.5115 33.2155 11.9999 33.818 11.9999Z" fill="white"></path>
</svg>