<svg width="53" height="18" viewBox="0 0 53 18" fill="none" xmlns="http://www.w3.org/2000/svg" id="svg-961194331_4643">
<path d="M44.3245 18C44.2456 18 44.1815 17.9364 44.1815 17.858V0.759021C44.1815 0.69178 44.2291 0.633767 44.2954 0.620059L47.282 0.003031C47.3708 -0.0153175 47.4542 0.051965 47.4542 0.141991V17.858C47.4542 17.9364 47.3902 18 47.3112 18H44.3245Z" fill="white"></path>
<path d="M5.93713 18C4.80161 18 3.78776 17.7208 2.89556 17.1625C2.00338 16.6041 1.29774 15.8405 0.778637 14.8716C0.259547 13.9027 0 12.8024 0 11.5708C0 10.3391 0.259547 9.24707 0.778637 8.2946C1.29774 7.32568 2.00338 6.57027 2.89556 6.02834C3.78776 5.47 4.80161 5.19082 5.93713 5.19082C6.84554 5.19082 7.64041 5.36325 8.32171 5.70811C8.86782 5.98454 9.33059 6.35065 9.70988 6.80644C9.7959 6.90981 9.97631 6.85134 9.97631 6.71657V0.731817C9.97631 0.666983 10.0216 0.611049 10.0847 0.597835L12.927 0.00292235C13.0115 -0.0147684 13.0909 0.0501022 13.0909 0.136901V17.5676C13.0909 17.6431 13.0299 17.7044 12.9548 17.7044H10.429C10.364 17.7044 10.3079 17.658 10.2954 17.5939L10.0366 16.2649C10.0137 16.1474 9.86032 16.1126 9.78431 16.2047C9.42161 16.6446 8.96654 17.0377 8.41902 17.3841C7.78638 17.7947 6.95909 18 5.93713 18ZM6.59411 15.2411C7.59983 15.2411 8.41902 14.9045 9.05167 14.2311C9.70053 13.5414 10.025 12.6628 10.025 11.5954C10.025 10.528 9.70053 9.65763 9.05167 8.9843C8.41902 8.2946 7.59983 7.94971 6.59411 7.94971C5.60458 7.94971 4.78539 8.28633 4.13652 8.95966C3.48766 9.63298 3.16323 10.5033 3.16323 11.5708C3.16323 12.6382 3.48766 13.5168 4.13652 14.2065C4.78539 14.8962 5.60458 15.2411 6.59411 15.2411Z" fill="white"></path>
<path d="M21.3761 18.0001C20.0826 18.0001 18.9356 17.7315 17.9353 17.1945C16.9349 16.6574 16.1501 15.9022 15.5809 14.9288C15.0118 13.9553 14.7272 12.8309 14.7272 11.5554C14.7272 10.263 15.0031 9.11337 15.5551 8.10639C16.1243 7.09939 16.9004 6.31897 17.8835 5.76512C18.8839 5.19449 20.0567 4.90918 21.402 4.90918C22.6611 4.90918 23.7736 5.17771 24.7394 5.71478C25.7052 6.25184 26.4555 6.99029 26.9901 7.93015C27.5421 8.8532 27.8181 9.88544 27.8181 11.0266C27.8181 11.2113 27.8094 11.4043 27.7922 11.6057C27.7922 11.767 27.7867 11.9337 27.7756 12.1058C27.7709 12.1788 27.7079 12.235 27.6322 12.235H18.1678C18.084 12.235 18.0175 12.3038 18.0258 12.3844C18.1183 13.2869 18.4589 14.0007 19.0477 14.526C19.6859 15.0798 20.4534 15.3567 21.3503 15.3567C22.0229 15.3567 22.5834 15.214 23.0319 14.9288C23.4706 14.6442 23.8022 14.285 24.0266 13.8514C24.0518 13.8026 24.1029 13.7707 24.1594 13.7707H27.2362C27.3329 13.7707 27.4025 13.8607 27.3721 13.9494C27.1259 14.6688 26.74 15.3309 26.214 15.9357C25.6622 16.5735 24.9723 17.077 24.1443 17.4462C23.3337 17.8155 22.411 18.0001 21.3761 18.0001ZM21.402 7.52738C20.5914 7.52738 19.8756 7.75392 19.2547 8.20707C18.672 8.6166 18.2867 9.23309 18.0989 10.0565C18.0796 10.1418 18.148 10.2211 18.2384 10.2211H24.301C24.3844 10.2211 24.4508 10.1531 24.4425 10.0729C24.3644 9.31971 24.058 8.71451 23.5234 8.25744C22.9543 7.77073 22.2472 7.52738 21.402 7.52738Z" fill="white"></path>
<path d="M36.1035 18.0001C34.81 18.0001 33.663 17.7315 32.6626 17.1945C31.6622 16.6574 30.8775 15.9022 30.3083 14.9288C29.7391 13.9553 29.4546 12.8309 29.4546 11.5554C29.4546 10.263 29.7306 9.11337 30.2824 8.10639C30.8516 7.09939 31.6278 6.31897 32.6109 5.76512C33.6112 5.19449 34.7841 4.90918 36.1294 4.90918C37.3885 4.90918 38.501 5.17771 39.4668 5.71478C40.4327 6.25184 41.1829 6.99029 41.7176 7.93015C42.2696 8.8532 42.5455 9.88544 42.5455 11.0266C42.5455 11.2113 42.5369 11.4043 42.5197 11.6057C42.5197 11.767 42.5141 11.9337 42.503 12.1058C42.4984 12.1788 42.4353 12.235 42.3597 12.235H32.8952C32.8114 12.235 32.7449 12.3038 32.7532 12.3844C32.8457 13.2869 33.1864 14.0007 33.7751 14.526C34.4133 15.0798 35.1808 15.3567 36.0776 15.3567C36.7503 15.3567 37.3109 15.214 37.7593 14.9288C38.198 14.6442 38.5296 14.285 38.754 13.8514C38.7793 13.8026 38.8303 13.7707 38.8868 13.7707H41.9637C42.0604 13.7707 42.1299 13.8607 42.0995 13.9494C41.8534 14.6688 41.4674 15.3309 40.9415 15.9357C40.3896 16.5735 39.6997 17.077 38.8718 17.4462C38.0611 17.8155 37.1384 18.0001 36.1035 18.0001ZM36.1294 7.52738C35.3188 7.52738 34.603 7.75392 33.9821 8.20707C33.3994 8.6166 33.0142 9.23309 32.8264 10.0565C32.8069 10.1418 32.8753 10.2211 32.9658 10.2211H39.0284C39.1118 10.2211 39.1782 10.1531 39.17 10.0729C39.0918 9.31971 38.7854 8.71451 38.2509 8.25744C37.6817 7.77073 36.9745 7.52738 36.1294 7.52738Z" fill="white"></path>
<path d="M50.7271 17.9998C51.6308 17.9998 52.3634 17.2671 52.3634 16.3634C52.3634 15.4597 51.6308 14.7271 50.7271 14.7271C49.8233 14.7271 49.0907 15.4597 49.0907 16.3634C49.0907 17.2671 49.8233 17.9998 50.7271 17.9998Z" fill="white"></path>
</svg>