<svg width="43" height="12" viewBox="0 0 43 12" fill="none" xmlns="http://www.w3.org/2000/svg" id="svg-515271662_1648">
<path fill-rule="evenodd" clip-rule="evenodd" d="M4.15384 0L0 4L8.30769 12L12.4615 8L16.6154 4L12.4615 0H4.15384ZM12.4615 0V8L8.30769 4L12.4615 0ZM22.3016 10.1539C24.5592 10.1539 25.8462 8.72235 25.8462 6.56933V5.71264H22.4598V7.04276H24.1583C24.1266 7.96713 23.6097 8.7449 22.3438 8.7449C20.8668 8.7449 20.2444 7.62895 20.2444 6.07336V5.9832C20.2444 4.33745 21.0146 3.28912 22.3227 3.28912C23.23 3.28912 23.8102 3.71747 23.9578 4.66432H25.6563C25.477 2.66915 23.9789 1.84624 22.3016 1.84624C20.0756 1.84624 18.4616 3.53708 18.4616 5.96066V6.05082C18.4616 8.44056 19.833 10.1539 22.3016 10.1539ZM32.2972 8.0712C32.1175 9.4085 31.1663 10.1541 29.6548 10.1541C27.9848 10.1541 26.7693 8.98247 26.7693 7.00614V6.91142C26.7693 4.95876 28.006 3.69251 29.6125 3.69251C31.0394 3.69251 32.3078 4.62745 32.3078 6.84043V7.31379H28.3231C28.3653 8.34338 28.8621 8.93514 29.6971 8.93514C30.4053 8.93514 30.754 8.5919 30.8492 8.0712H32.2972ZM29.6125 4.87596C28.9255 4.87596 28.4605 5.3848 28.3442 6.26053H30.8175C30.7646 5.32566 30.3419 4.87596 29.6125 4.87596ZM34.906 10.1541H33.2308V3.83743H34.906V4.80363C35.2064 4.21181 35.8533 3.69251 36.7545 3.69251C37.5516 3.69251 38.1524 4.04275 38.4412 4.79158C38.9264 4.03064 39.712 3.69251 40.4745 3.69251C41.5951 3.69251 42.4616 4.42924 42.4616 6.10802V10.1541H40.798V6.30129C40.798 5.49205 40.4514 5.12971 39.8506 5.12971C39.2037 5.12971 38.6838 5.56451 38.6838 6.42205V10.1541H37.0202V6.30129C37.0202 5.49205 36.6621 5.12971 36.0729 5.12971C35.4259 5.12971 34.906 5.56451 34.906 6.42205V10.1541Z" fill="white"></path>
</svg>