<svg width="92" height="24" viewBox="0 0 92 24" fill="none" xmlns="http://www.w3.org/2000/svg" id="svg-1256765741_13238">
<path d="M16.0307 18.2711C16.0307 18.0022 15.8555 17.8032 15.4972 17.7257V17.5517C15.6955 17.5517 16.3561 17.5783 16.5419 17.5783C16.7026 17.5783 17.3423 17.5517 17.5413 17.5517V17.7257C17.2088 17.7906 17.0342 17.9869 17.0342 18.2711V21.6847C17.0342 22.7657 17.6278 23.3767 18.8695 23.3767C19.9394 23.3767 20.7719 22.8963 20.7719 21.765V18.2578C20.7719 18.0043 20.6126 17.8032 20.2118 17.7257V17.5517C20.3576 17.5517 20.9038 17.5783 21.0903 17.5783C21.2495 17.5783 21.8228 17.5517 21.9694 17.5517V17.7257C21.5827 17.8179 21.4107 17.991 21.4107 18.2578V21.577C21.4107 23.0667 20.5441 23.9222 18.674 23.9222C16.9329 23.9222 16.0307 23.1309 16.0307 21.7314V18.2711Z" fill="white"></path>
<path d="M23.498 23.6548C23.9031 23.5793 24.063 23.3742 24.063 23.1227V18.4046C24.063 18.0044 23.85 17.8244 23.4868 17.7253V17.5513C23.6923 17.5666 24.0371 17.5756 24.2132 17.5756C24.3731 17.5756 24.6217 17.5729 24.7892 17.5513L28.8815 22.363V18.258C28.8815 18.0051 28.721 17.804 28.3216 17.7253V17.5513C28.4682 17.5513 28.9948 17.5785 29.1819 17.5785C29.3447 17.5785 29.9089 17.5513 30.0576 17.5513V17.7253C29.6672 17.8173 29.4788 17.9919 29.4788 18.258V23.9222H29.2322C29.077 23.8867 28.7838 23.7198 28.3369 23.2296L24.6755 18.9647V23.1227C24.6755 23.3754 24.8213 23.5758 25.2209 23.6548V23.8294C25.0743 23.8294 24.5477 23.8016 24.3606 23.8016C24.1992 23.8016 23.6467 23.8294 23.498 23.8294V23.6548Z" fill="white"></path>
<path d="M55.7902 22.3825H55.9634C56.055 22.7351 56.2567 23.0565 56.5395 23.2422C56.8337 23.4496 57.2952 23.5487 57.6681 23.5487C58.4914 23.5487 59.0132 23.141 59.0132 22.4956C59.0132 21.8273 58.3447 21.4803 57.5439 21.0801C56.948 20.7819 55.7777 20.2897 55.7777 19.1583C55.7777 18.1043 56.5816 17.4487 57.8672 17.4487C58.7157 17.4487 59.1138 17.6561 59.6864 17.6295L59.6753 18.9082H59.5005C59.2715 18.1546 58.5872 17.8921 57.8378 17.8921C56.9998 17.8921 56.6863 18.3713 56.6863 18.8587C56.6863 19.5564 57.3691 19.9082 58.1429 20.2533C59.0132 20.6408 59.9573 21.1304 59.9573 22.2205C59.9573 23.2526 59.15 24 57.6744 24C56.7965 24 56.27 23.7493 55.8084 23.6925L55.7902 22.3825Z" fill="white"></path>
<path d="M73.3765 21.2326L71.7103 18.5594C71.4261 18.0901 71.2083 17.8427 70.8911 17.7255V17.5522C71.1195 17.5522 71.7362 17.5795 71.9113 17.5795C72.0698 17.5795 72.7354 17.5522 72.9757 17.5522V17.7255C72.7626 17.7632 72.6628 17.87 72.6628 18.0307C72.6628 18.1724 72.7593 18.3548 72.8563 18.5133C72.9513 18.6703 74.0848 20.5504 74.0848 20.5504L75.2683 18.514C75.3879 18.31 75.4723 18.1075 75.4723 17.974C75.4723 17.8526 75.3863 17.752 75.1846 17.7255V17.5522C75.385 17.5522 75.8061 17.5795 75.9402 17.5795C76.0744 17.5795 76.5582 17.5522 76.7572 17.5522V17.7137C76.302 17.9002 76.0177 18.2996 75.7419 18.7625L74.2272 21.2941L73.3765 21.2326ZM74.3305 20.9749V23.1105C74.3305 23.3221 74.4918 23.5881 74.8562 23.6551V23.8298C74.6532 23.8298 73.9898 23.8018 73.7977 23.8018C73.6364 23.8018 73.0001 23.8298 72.7704 23.8298V23.6551C73.1363 23.5881 73.3117 23.3221 73.3117 23.1105V21.0686" fill="white"></path>
<path d="M42.4154 17.552H46.3226C46.4435 17.552 46.6551 17.5381 46.7758 17.4858H46.9506L46.9232 18.7553H46.75C46.6013 18.3559 46.447 18.036 45.6907 18.036H43.9943V20.2484H45.3018C45.4924 20.2484 45.7235 20.2323 45.8234 20.2086C46.1173 20.1444 46.2467 19.9808 46.306 19.7303H46.4805C46.468 19.9215 46.468 20.3581 46.468 20.4873C46.468 20.6171 46.4805 21.0766 46.4805 21.2848H46.306C46.222 21.0347 46.1077 20.8448 45.8234 20.775C45.7235 20.7484 45.4883 20.7268 45.3018 20.7268H43.9943V23.3219H45.8394C46.6453 23.3219 46.8794 22.986 47.0797 22.5111L47.2522 22.5515L47.0797 23.8555C46.4805 23.8023 46.121 23.8023 45.4406 23.8023H43.491C43.3031 23.8023 42.6137 23.8297 42.4133 23.8297V23.6557C42.7653 23.5886 42.9707 23.4146 42.9707 23.0774V18.2777C42.9707 17.9802 42.8107 17.7944 42.4154 17.7281V17.552Z" fill="white"></path>
<path d="M32.4358 18.3121C32.4358 17.9902 32.2438 17.8129 31.8673 17.7317V17.5593C32.0769 17.5593 32.7552 17.5857 32.9527 17.5857C33.1182 17.5857 33.8153 17.5593 34.0275 17.5593V17.7317C33.6531 17.8129 33.4568 17.9732 33.4568 18.3121V23.0783C33.4568 23.4002 33.6496 23.5755 34.0275 23.6551V23.8298C33.8159 23.8298 33.1474 23.8025 32.9527 23.8025C32.7843 23.8025 32.0769 23.8298 31.8667 23.8298V23.6551C32.2515 23.5832 32.4358 23.4149 32.4358 23.0783V18.3121Z" fill="white"></path>
<path d="M62.0761 18.3121C62.0761 17.9902 61.8819 17.8129 61.5062 17.7317V17.5593C61.7158 17.5593 62.3945 17.5857 62.5907 17.5857C62.7577 17.5857 63.4546 17.5593 63.6663 17.5593V17.7317C63.292 17.8129 63.0964 17.9732 63.0964 18.3121V23.0783C63.0964 23.4002 63.2892 23.5755 63.6663 23.6551V23.8298C63.4561 23.8298 62.7884 23.8025 62.5907 23.8025C62.4252 23.8025 61.7158 23.8298 61.5062 23.8298V23.6551C61.8903 23.5832 62.0761 23.4149 62.0761 23.0783V18.3121Z" fill="white"></path>
<path d="M67.5073 17.5788C65.3655 17.5788 65.0227 17.5389 64.5847 17.5117L64.5884 18.8051H64.7628C64.9227 18.2317 65.2419 18.0984 65.6554 18.0984H66.9989V23.0783C66.9989 23.4148 66.8147 23.5832 66.4292 23.6551V23.8298C66.6407 23.8298 67.3544 23.8025 67.5192 23.8025C67.7155 23.8025 68.386 23.8298 68.5948 23.8298V23.6551C68.2161 23.5755 68.0242 23.4002 68.0242 23.0783V18.0984H69.3572C69.786 18.0984 70.0927 18.2444 70.2524 18.8051H70.425L70.4279 17.5117C69.9927 17.5389 69.65 17.5788 67.5073 17.5788Z" fill="white"></path>
<path d="M50.4158 23.0783C50.4158 23.4002 50.6203 23.5748 50.9982 23.655V23.8298C50.7886 23.8298 50.1035 23.8024 49.908 23.8024C49.7404 23.8024 49.0714 23.8298 48.8606 23.8298V23.655C49.2111 23.5881 49.4177 23.4149 49.4177 23.0783V18.2633C49.4177 17.9672 49.2565 17.7807 48.862 17.7136V17.5404C49.0714 17.5404 49.734 17.5668 49.9213 17.5668C50.228 17.5668 51.0994 17.5153 51.4423 17.5153C52.9437 17.5153 53.7797 18.1361 53.7797 19.2003C53.7797 20.0369 53.1574 20.6027 52.1992 20.8338C52.1992 20.8338 52.418 20.9608 52.6358 21.2144C52.9005 21.5264 53.6155 22.5525 53.9122 22.9113C54.2085 23.2711 54.5876 23.6726 54.994 23.6907V23.831C54.7993 23.8736 54.487 23.9108 54.2482 23.9108C53.7384 23.9108 53.3314 23.7306 52.9361 23.2523C52.594 22.836 52.0137 21.9722 51.672 21.5356C51.4536 21.2577 51.1888 21.0405 50.7041 20.9608C50.6105 20.9448 50.5219 20.9315 50.4158 20.919V23.0783ZM50.4158 20.5195C50.6155 20.5467 50.9094 20.5594 51.2 20.5594C52.3754 20.5594 52.7455 19.8833 52.7455 19.2849C52.7455 18.4385 52.1804 17.914 51.1518 17.914C50.9389 17.914 50.6301 17.9406 50.4158 17.9809V20.5195Z" fill="white"></path>
<path d="M35.5333 18.3324C35.3965 18.0293 35.1863 17.8072 34.828 17.7285V17.5516C35.0507 17.5516 35.8224 17.5796 35.992 17.5796C36.148 17.5796 36.8224 17.5516 37.0516 17.5516V17.7234C36.8482 17.7625 36.6165 17.8749 36.6165 18.0831C36.6165 18.2318 36.7065 18.4344 36.8791 18.8158L38.4964 22.4959L40.0272 18.8094C40.1481 18.5119 40.2354 18.2814 40.2354 18.1054C40.2354 17.9107 40.0558 17.7758 39.8015 17.7234V17.5516C40.0049 17.5516 40.5035 17.5796 40.6585 17.5796C40.8002 17.5796 41.3855 17.5516 41.609 17.5516V17.7285C41.227 17.8317 40.9943 18.042 40.78 18.5399L38.5271 23.8521H38.0173L35.5333 18.3324Z" fill="white"></path>
<path d="M41.3096 1.57863C41.0492 1.00382 40.6497 0.584817 39.973 0.434709V0.100169C40.3941 0.100169 41.7922 0.150469 42.1134 0.150469C42.4096 0.150469 43.7637 0.100169 44.1952 0.100169V0.426325C43.8124 0.501143 43.3725 0.714837 43.3725 1.10933C43.3725 1.38787 43.5457 1.77287 43.867 2.49415L46.9348 9.46856L49.8378 2.48229C50.0641 1.91665 50.2331 1.48436 50.2331 1.14982C50.2331 0.778266 49.8895 0.526292 49.4083 0.426325V0.100169C49.7924 0.100169 50.7261 0.150469 51.0228 0.150469C51.2925 0.150469 52.4015 0.100169 52.8233 0.100169V0.415887C52.0998 0.612182 51.6571 1.02771 51.2541 1.97106L46.9865 12.0406H46.0207L41.3096 1.57863Z" fill="white"></path>
<path d="M0.00012207 11.6568C0.557373 11.5297 0.949173 11.2763 0.949173 10.645V1.41341C0.949173 0.807282 0.584579 0.555785 0.00012207 0.403621V0.0760403C0.292746 0.0760403 1.55324 0.125706 1.85979 0.125706C2.21315 0.125706 3.53439 0.0760403 3.82495 0.0760403V0.403621C3.26834 0.530003 2.85566 0.782765 2.85566 1.41341V5.26972H9.73295V1.41341C9.73295 0.782765 9.3663 0.530003 8.78533 0.403621V0.0760403C9.07574 0.0760403 10.3734 0.125706 10.726 0.125706C11.0305 0.125706 12.3204 0.0760403 12.6079 0.0760403V0.403621C12.0509 0.530003 11.638 0.782765 11.638 1.41341V10.645C11.638 11.2511 12.0255 11.5053 12.6079 11.6568V11.9591C12.3204 11.9591 11.0305 11.9341 10.726 11.9341C10.3734 11.9341 9.07574 11.9591 8.78533 11.9591V11.6568C9.33846 11.5297 9.73295 11.2763 9.73295 10.645V6.2822H2.85566V10.645C2.85566 11.2763 3.24255 11.5053 3.82495 11.6568V11.9591C3.53439 11.9591 2.21315 11.9341 1.85979 11.9341C1.55324 11.9341 0.292746 11.9591 0.00012207 11.9591V11.6568Z" fill="white"></path>
<path d="M79.5483 11.6575C80.262 11.5303 80.6552 11.2469 80.6552 10.5953V1.41406C80.6552 0.781357 80.2676 0.53065 79.5778 0.404268V0.0766878C79.9749 0.0766878 81.2683 0.126354 81.6266 0.126354C82.2049 0.126354 83.818 -2.67029e-05 85.0737 -2.67029e-05C89.3043 -2.67029e-05 91.8727 2.36248 91.8727 5.95479C91.8727 9.44651 89.2002 12.0339 84.8382 12.0339C83.5805 12.0339 82.0889 11.9348 81.5051 11.9348C81.1503 11.9348 79.9443 11.9849 79.5483 11.9849V11.6575ZM82.5603 11.0491C82.9912 11.1274 83.7873 11.1763 84.4151 11.1763C87.969 11.1763 89.819 9.03731 89.819 6.05397C89.819 2.96101 87.8671 0.784838 84.5443 0.784838C83.8654 0.784838 83.0171 0.83577 82.5603 0.909954V11.0491Z" fill="white"></path>
<path d="M31.6621 10.5613C31.6621 11.1731 32.0496 11.5054 32.7627 11.6569V11.9845C32.3654 11.9845 31.0713 11.9342 30.6991 11.9342C30.3848 11.9342 29.1152 11.9845 28.7186 11.9845V11.6569C29.3806 11.5299 29.771 11.2003 29.771 10.5613V1.4458C29.771 0.884911 29.4679 0.530281 28.7199 0.403741V0.0761604C29.1174 0.0761604 30.3716 0.125828 30.7235 0.125828C31.3053 0.125828 32.9549 0.0288668 33.6056 0.0288668C36.4507 0.0288668 38.0345 1.20553 38.0345 3.21815C38.0345 4.80481 36.8529 5.87249 35.0395 6.31316C35.0395 6.31316 35.4507 6.5528 35.8647 7.03523C36.3669 7.62538 37.7525 9.60874 38.3126 10.2881C38.8725 10.9684 39.5911 11.7281 40.3594 11.7631V12.0307C39.9913 12.1101 39.4019 12.178 38.9515 12.178C37.9815 12.178 37.2112 11.8385 36.4619 10.9306C35.8159 10.1429 34.6859 8.4683 34.0385 7.64152C33.6252 7.11479 33.1267 6.70433 32.2111 6.5528C32.0308 6.52195 31.8613 6.49823 31.6621 6.47592V10.5613ZM31.6621 5.71969C32.0386 5.7692 32.595 5.79435 33.1469 5.79435C35.3718 5.79435 36.0708 4.5136 36.0708 3.38218C36.0708 1.77544 35.0009 0.784311 33.0518 0.784311C32.6502 0.784311 32.0651 0.835402 31.6621 0.909428V5.71969Z" fill="white"></path>
<path d="M69.1608 10.5613C69.1608 11.1731 69.5498 11.5054 70.2636 11.6569V11.9845C69.8669 11.9845 68.5742 11.9342 68.202 11.9342C67.8822 11.9342 66.6168 11.9845 66.2186 11.9845V11.6569C66.8793 11.5299 67.2705 11.2003 67.2705 10.5613V1.4458C67.2705 0.884911 66.9646 0.530281 66.2208 0.403741V0.0761604C66.6196 0.0761604 67.8697 0.125828 68.2244 0.125828C68.8075 0.125828 70.4561 0.0288668 71.1029 0.0288668C73.9529 0.0288668 75.5318 1.20553 75.5318 3.21815C75.5318 4.80481 74.3531 5.87249 72.5382 6.31316C72.5382 6.31316 72.9515 6.5528 73.3621 7.03523C73.8691 7.62538 75.2545 9.60874 75.8126 10.2881C76.3747 10.9684 77.0933 11.7281 77.8573 11.7631V12.0307C77.4943 12.1101 76.9015 12.178 76.4557 12.178C75.4837 12.178 74.7099 11.8385 73.9626 10.9306C73.3166 10.1429 72.1902 8.4683 71.5373 7.64152C71.1238 7.11479 70.6268 6.70433 69.7132 6.5528C69.5303 6.52195 69.3625 6.49823 69.1608 6.47592V10.5613ZM69.1608 5.71969C69.542 5.7692 70.0952 5.79435 70.6475 5.79435C72.8734 5.79435 73.5703 4.5136 73.5703 3.38218C73.5703 1.77544 72.4996 0.784311 70.5542 0.784311C70.149 0.784311 69.5666 0.835402 69.1608 0.909428V5.71969Z" fill="white"></path>
<path d="M14.4168 11.6544C15.1695 11.4785 15.583 10.9911 15.8574 10.3387L19.6663 1.17439C19.8283 0.79524 20.0168 0.0157528 20.0168 0.0157528H21.0826C21.0826 0.0157528 21.2732 0.797297 21.4317 1.17723L25.4569 10.3639C25.744 10.9966 26.0547 11.4534 26.855 11.6544L26.853 11.9597C26.4172 11.9597 25.0624 11.9346 24.7543 11.9346C24.4478 11.9346 23.1537 11.9597 22.7188 11.9597L22.7202 11.6544C23.3061 11.5107 23.4911 11.2125 23.4911 10.924C23.4911 10.679 23.3899 10.4023 23.267 10.1154L22.4016 8.14168H17.9664L17.1739 10.1265C17.0852 10.3514 16.9797 10.6692 16.9797 10.8835C16.9797 11.2146 17.1529 11.4785 17.8177 11.6544L17.8163 11.9597C17.4224 11.9597 16.3826 11.9346 16.139 11.9346L14.4161 11.9597L14.4168 11.6544ZM22.0002 7.20592L20.1062 2.79315L18.3422 7.20592H22.0002Z" fill="white"></path>
<path d="M52.1502 11.6544C52.9025 11.4785 53.3172 10.9911 53.5903 10.3387L57.4004 1.17439C57.5625 0.79524 57.7531 0.0157528 57.7531 0.0157528H58.8187C58.8187 0.0157528 59.0074 0.797297 59.1653 1.17723L63.192 10.3639C63.4767 10.9966 63.7903 11.4534 64.5872 11.6544L64.5858 11.9597C64.1514 11.9597 62.7953 11.9346 62.4851 11.9346C62.1814 11.9346 60.888 11.9597 60.4522 11.9597V11.6544C61.0417 11.5107 61.2239 11.2125 61.2239 10.924C61.2239 10.679 61.124 10.4023 61.0033 10.1154L60.1346 8.14168H55.6992L54.906 10.1265C54.8172 10.3514 54.7125 10.6692 54.7125 10.8835C54.7125 11.2146 54.8857 11.4785 55.5505 11.6544V11.9597C55.1552 11.9597 54.117 11.9346 53.8718 11.9346L52.1488 11.9597L52.1502 11.6544ZM59.7336 7.20592L57.8384 2.79315L56.0757 7.20592H59.7336Z" fill="white"></path>
</svg>