<svg width="18" height="17" viewBox="0 0 18 17" fill="none" xmlns="http://www.w3.org/2000/svg" id="svg1548124537_818">
<path fill-rule="evenodd" clip-rule="evenodd" d="M2.8021 3.9726C3.88366 3.9726 4.76044 3.09582 4.76044 2.01425C4.76044 0.932689 3.88366 0.0559082 2.8021 0.0559082C1.72053 0.0559082 0.84375 0.932689 0.84375 2.01425C0.84375 3.09582 1.72053 3.9726 2.8021 3.9726ZM17.1959 16.3678V10.1904C17.1959 8.40369 16.9249 6.9732 16.0249 6.1545C15.3388 5.52863 14.3894 5.10454 12.5931 5.19359C11.0172 5.27302 10.0762 6.64777 9.90257 6.92708L9.85452 5.42549H6.61816V16.3671H10.0192V10.6337L10.0134 10.4626C10.0409 9.99817 10.1152 9.3614 10.433 8.8771C10.8174 8.29158 11.5656 8.08915 12.351 8.17243C13.522 8.2935 13.7744 9.52476 13.7744 10.1V16.3684L17.1959 16.3678ZM1.08655 5.42616H4.47794V16.3678H1.08655V5.42616Z" fill="white"></path>
</svg>