<svg width="108" height="9" viewBox="0 0 108 9" fill="none" xmlns="http://www.w3.org/2000/svg" id="svg292854809_2656">
<path d="M101.179 8.61033H102.033V2.25174L107.042 8.61033H107.742V0.851689H106.889V7.07172L102.003 0.851689H101.187V8.61033H101.179ZM91.0069 5.76647L92.7789 1.82152L94.5436 5.76647H91.0069ZM88.8411 8.61033H89.7381L90.6569 6.56129H94.879L95.7905 8.61033H96.7312L93.1945 0.793353H92.3778L88.8411 8.61033ZM76.9696 8.61033H77.8227V2.33925L80.6521 6.48108H80.6958L83.5252 2.32466V8.61033H84.4002V0.851689H83.5106L80.6812 5.08831L77.8592 0.851689H76.9696V8.61033ZM68.7441 8.73429C70.6838 8.73429 71.9818 7.56029 71.9818 5.29978V0.851689H71.1067V5.36541C71.1067 7.06443 70.1952 7.92488 68.7659 7.92488C67.2929 7.92488 66.396 6.98422 66.396 5.30707V0.851689H65.521V5.36541C65.521 7.56029 66.8262 8.73429 68.7441 8.73429ZM54.2984 8.61033H55.1734V5.11748H59.6508V8.61033H60.5258V0.851689H59.6508V4.30078H55.1734V0.851689H54.2984V8.61033ZM44.2426 4.81122V1.6611H46.6344C47.8886 1.6611 48.6178 2.23716 48.6178 3.19241V3.21428C48.6178 4.21328 47.7865 4.81122 46.6198 4.81122H44.2426ZM43.3675 8.61033H44.2426V5.59875H46.4594L48.7126 8.61033H49.7846L47.4 5.43833C48.6178 5.21957 49.5075 4.46121 49.5075 3.17782V3.15595C49.5075 2.54342 49.2887 2.00382 48.9095 1.62464C48.4209 1.13607 47.6553 0.851689 46.7073 0.851689H43.3675V8.61033ZM33.0273 8.61033H38.6933V7.8155H33.9023V5.0956H38.1391V4.30078H33.9023V1.6538H38.6349V0.851689H33.0273V8.61033ZM23.5767 5.07373V1.6611H25.5383C26.7925 1.6611 27.6238 2.23716 27.6238 3.34554V3.36741C27.6238 4.38829 26.778 5.07373 25.4945 5.07373H23.5767ZM22.7017 8.61033H23.5767V5.87584H25.4581C27.1061 5.87584 28.5062 5.0081 28.5062 3.33824V3.31637C28.5062 1.78506 27.354 0.858981 25.6039 0.858981H22.7017V8.61033ZM14.4762 8.73429C16.4159 8.73429 17.7139 7.56029 17.7139 5.29978V0.851689H16.8388V5.36541C16.8388 7.06443 15.9273 7.92488 14.498 7.92488C13.025 7.92488 12.1281 6.98422 12.1281 5.30707V0.851689H11.253V5.36541C11.253 7.56029 12.5583 8.73429 14.4762 8.73429ZM4.02656 8.71971C5.5652 8.71971 6.6736 7.85196 6.6736 6.52483V6.50295C6.6736 5.31436 5.87876 4.68726 4.14323 4.30807C2.43688 3.94348 2.03581 3.53513 2.03581 2.79864V2.78406C2.03581 2.08403 2.67752 1.52984 3.68383 1.52984C4.47867 1.52984 5.20059 1.78506 5.92251 2.37571L6.43296 1.69756C5.6527 1.06316 4.84328 0.74231 3.713 0.74231C2.23999 0.74231 1.16076 1.63922 1.16076 2.85698V2.87885C1.16076 4.15494 1.97748 4.73101 3.76405 5.11748C5.39019 5.4602 5.78396 5.86855 5.78396 6.59046V6.61233C5.78396 7.37799 5.0985 7.93217 4.05573 7.93217C2.98379 7.93217 2.20353 7.56758 1.39411 6.83838L0.854492 7.48007C1.78788 8.31136 2.79419 8.71971 4.02656 8.71971Z" fill="white"></path>
</svg>