<svg width="68" height="18" viewBox="0 0 68 18" fill="none" xmlns="http://www.w3.org/2000/svg" id="svg-2032125681_1181">
<path d="M9.32462 16.8398C8.30449 17.0157 7.26642 17.0685 6.19259 17.209L2.91726 7.78715V17.6133C1.89713 17.7188 0.966481 17.8594 0 18V0H2.7205L6.44312 10.213V0H9.32462V16.8398ZM14.9624 6.5918C16.0721 6.5918 17.7724 6.53905 18.7925 6.53905V9.35149C17.5217 9.35149 16.0363 9.35149 14.9624 9.40424V13.5879C16.6448 13.4825 18.3272 13.3417 20.0274 13.289V15.9958L12.0987 16.6112V0H20.0274V2.8125H14.9624V6.5918ZM30.6764 2.81257H27.7054V15.75C26.739 15.75 25.7725 15.75 24.842 15.7851V2.81257H21.871V0H30.6765L30.6764 2.81257ZM35.3297 6.39849H39.2494V9.21093H35.3297V15.5919H32.5196V0H40.5201V2.8125H35.3297V6.39849ZM45.1734 13.1309C46.8022 13.1659 48.4486 13.2892 50.0416 13.3769V16.1543C47.4823 15.996 44.9229 15.838 42.3099 15.7851V0H45.1734V13.1309ZM52.4577 16.3477C53.3705 16.4005 54.337 16.4532 55.2676 16.5585V0H52.4577V16.3477ZM67.8139 0L64.1807 8.56057L67.8139 18C66.74 17.8594 65.6662 17.666 64.5923 17.4902L62.5341 12.2872L60.4403 17.0685C59.402 16.8925 58.3998 16.8398 57.3619 16.6992L61.0488 8.45501L57.7197 0H60.798L62.6772 4.72853L64.6819 0H67.8139V0Z" fill="white"></path>
</svg>