<svg width="69" height="24" viewBox="0 0 69 24" fill="none" xmlns="http://www.w3.org/2000/svg" id="svg-2116821237_3526">
<path fill-rule="evenodd" clip-rule="evenodd" d="M1.44076 1.03304L14.691 0.0544386C16.3185 -0.0852474 16.7368 0.00894087 17.7601 0.752869L21.989 3.73257L22.0951 3.8092L22.0988 3.81192C22.7114 4.2616 22.9197 4.41451 22.9197 4.94265V21.2843C22.9197 22.3084 22.5469 22.9143 21.2458 23.0068L5.85883 23.9383C4.88182 23.9846 4.41647 23.845 3.90482 23.1928L0.790223 19.1427C0.23148 18.3972 0 17.8393 0 17.1871V2.66138C0 1.82406 0.371964 1.12563 1.44076 1.03304ZM3.95192 4.19872C4.66551 4.77902 4.95047 4.75986 6.20685 4.67525L6.36968 4.66408L19.5241 3.87226C19.8035 3.87226 19.5712 3.59368 19.4778 3.54659L17.2931 1.96375C16.8749 1.63808 16.3177 1.26532 15.2481 1.35871L2.51036 2.28941C2.0458 2.33571 1.95321 2.56879 2.13759 2.75557L3.95192 4.19872ZM4.74214 7.27181V21.1446C4.74214 21.8902 5.1133 22.1687 5.94982 22.1224L20.4077 21.2843C21.2442 21.238 21.3376 20.7256 21.3376 20.1197V6.33951C21.3376 5.73447 21.1061 5.4088 20.5937 5.4551L5.48527 6.33951C4.92812 6.3866 4.74214 6.66598 4.74214 7.27181ZM18.595 8.90175C19.0141 8.85386 19.1066 8.4348 19.0141 8.01574L15.8053 8.20252C15.3407 8.24802 14.9687 8.62078 15.0621 9.13403L16.2706 9.27292V15.6977L11.5293 8.4356L8.08901 8.66708C7.43768 8.71417 7.2054 9.31921 7.29879 9.73827L8.46098 9.83246V19.0038L7.62366 19.2361C7.29879 19.3287 7.2054 19.7941 7.29879 19.9808L10.5052 19.7949C11.6682 19.7949 11.6682 18.9567 11.6682 18.9567L10.2266 18.6303V11.6939L14.7836 18.8634L14.7839 18.8638C15.3408 19.5611 15.5269 19.7941 16.2706 19.7941C16.736 19.7941 17.2931 19.6081 17.8982 19.2824V9.03984L18.595 8.90175ZM33.0735 16.962V16.9628L33.0743 16.962H33.0735ZM33.0735 16.962V10.649H33.1829L37.7358 16.9628H39.1694V7.68446H37.5754V13.9919H37.466L32.9131 7.68446H31.4739V16.962H33.0735ZM47.0573 13.4459C47.0573 15.7288 45.7778 17.1049 43.6745 17.1049C41.5656 17.1049 40.2925 15.7288 40.2925 13.4459C40.2925 11.1758 41.5848 9.78693 43.6745 9.78693C45.7714 9.78693 47.0573 11.1694 47.0573 13.4459ZM41.9264 13.4459C41.9264 14.9186 42.5626 15.7671 43.6745 15.7671C44.7872 15.7671 45.417 14.9186 45.417 13.4459C45.417 11.9796 44.7808 11.1247 43.6745 11.1247C42.5626 11.1247 41.9264 11.9796 41.9264 13.4459ZM48.514 9.97371V8.20569V8.20489H50.1024V9.97371H51.6071V11.2468H50.1024V14.6999C50.1024 15.3943 50.3986 15.7024 51.0667 15.7024C51.2854 15.7024 51.4069 15.6904 51.5909 15.6721L51.6071 15.6705V16.9181C51.3756 16.9636 51.0794 16.9955 50.7713 16.9955C49.1574 16.9955 48.514 16.4488 48.514 15.0854V11.2468H47.4021V9.97371H48.514ZM54.1509 16.9628H52.5625V9.92821H54.1509V16.9628ZM54.305 7.80658C54.305 8.33978 53.8803 8.76523 53.3535 8.76523V8.76443C52.8331 8.76443 52.4021 8.33978 52.4021 7.80658C52.4021 7.27258 52.8331 6.84155 53.3535 6.84155C53.8811 6.84155 54.305 7.27258 54.305 7.80658ZM61.8903 13.4459C61.8903 15.7288 60.6108 17.1049 58.5083 17.1049C56.3987 17.1049 55.1255 15.7288 55.1255 13.4459C55.1255 11.1758 56.4178 9.78693 58.5083 9.78693C60.6044 9.78693 61.8903 11.1694 61.8903 13.4459ZM56.7587 13.4459C56.7587 14.9186 57.3956 15.7671 58.5083 15.7671C59.6202 15.7671 60.2508 14.9186 60.2508 13.4459C60.2508 11.9796 59.6139 11.1247 58.5083 11.1247C57.3956 11.1247 56.7587 11.9796 56.7587 13.4459ZM64.4342 16.9628H62.8394V9.92821H64.376V11.0537H64.4853C64.8198 10.269 65.527 9.78693 66.5758 9.78693C68.1443 9.78693 69 10.732 69 12.4106V16.9628H67.4043V12.7898C67.4043 11.7162 66.955 11.1758 65.9835 11.1758C65.0329 11.1758 64.4342 11.8319 64.4342 12.8672V16.9628Z" fill="white"></path>
</svg>