<svg width="81" height="24" viewBox="0 0 81 24" fill="none" xmlns="http://www.w3.org/2000/svg" id="svg-216675831_6418">
<path d="M12.0217 0C5.38243 0 0 5.37268 0 12.0001C0 18.6278 5.38243 24 12.0217 24C18.6616 24 24.0435 18.6278 24.0435 12.0001C24.0435 5.37311 18.6616 0.000573189 12.0215 0.000573189L12.0217 0ZM17.5347 17.3075C17.3194 17.6601 16.8572 17.7718 16.504 17.5555C13.6815 15.8344 10.1282 15.4447 5.94358 16.399C5.54034 16.4907 5.13839 16.2385 5.04651 15.8359C4.95421 15.4332 5.20586 15.032 5.61011 14.9403C10.1895 13.8959 14.1176 14.3456 17.2864 16.2787C17.6395 16.495 17.7515 16.955 17.5347 17.3075ZM19.0062 14.0401C18.7349 14.4803 18.1578 14.6193 17.7171 14.3484C14.4856 12.3658 9.55986 11.7916 5.73773 12.9497C5.24203 13.0992 4.71849 12.8203 4.56805 12.3264C4.41875 11.8316 4.69825 11.3099 5.19308 11.1595C9.559 9.83713 14.9867 10.4777 18.6975 12.754C19.1382 13.0248 19.2775 13.6009 19.0062 14.0402V14.0401ZM19.1325 10.6376C15.258 8.34038 8.86549 8.12916 5.16624 9.24989C4.57221 9.42973 3.94401 9.09499 3.764 8.50202C3.58398 7.90877 3.91904 7.28212 4.51349 7.10185C8.75998 5.81504 15.8193 6.06366 20.2801 8.70708C20.8155 9.02363 20.9907 9.71246 20.6734 10.2451C20.3576 10.7785 19.6657 10.9543 19.1331 10.6376H19.1325ZM32.707 11.0778C30.6312 10.5837 30.2623 10.2369 30.2623 9.50826C30.2623 8.81986 30.9111 8.35657 31.8773 8.35657C32.8132 8.35657 33.7406 8.70837 34.7139 9.4326C34.7426 9.45452 34.7799 9.46326 34.8158 9.45753C34.8531 9.45209 34.8847 9.43217 34.9063 9.40222L35.9198 7.97612C35.9614 7.91736 35.9499 7.8364 35.8939 7.79155C34.7354 6.86398 33.432 6.41302 31.9074 6.41302C29.6665 6.41302 28.1003 7.75558 28.1003 9.67649C28.1003 11.7364 29.4512 12.4658 31.7854 13.0288C33.7707 13.4855 34.1067 13.8681 34.1067 14.5519C34.1067 15.31 33.4291 15.7814 32.3381 15.7814C31.1265 15.7814 30.1374 15.373 29.032 14.4187C29.0047 14.3943 28.9674 14.3843 28.933 14.3857C28.8956 14.3886 28.8626 14.4058 28.8397 14.433L27.7027 15.7829C27.6553 15.8402 27.6611 15.9233 27.7156 15.972C29.0019 17.1184 30.5838 17.7231 32.2921 17.7231C34.7067 17.7231 36.2672 16.4062 36.2672 14.3671C36.2715 12.6465 35.2393 11.6936 32.7113 11.0797L32.707 11.0778ZM41.7308 9.03437C40.6843 9.03437 39.8259 9.44593 39.1167 10.2892V9.34003C39.1167 9.26508 39.0564 9.20404 38.9818 9.20404H37.1227C37.0481 9.20404 36.9878 9.26508 36.9878 9.34003V19.8869C36.9878 19.9614 37.0481 20.023 37.1227 20.023H38.9818C39.0564 20.023 39.1167 19.9614 39.1167 19.8869V16.5581C39.8259 17.3505 40.6843 17.7389 41.7308 17.7389C43.676 17.7389 45.6456 16.2443 45.6456 13.3871C45.6484 10.5293 43.6789 9.03423 41.7323 9.03423L41.7308 9.03437ZM43.4836 13.3871C43.4836 14.8414 42.5864 15.8574 41.3002 15.8574C40.0297 15.8574 39.0708 14.7955 39.0708 13.3871C39.0708 11.9784 40.0297 10.9169 41.3002 10.9169C42.5649 10.9167 43.4836 11.9554 43.4836 13.3869V13.3871ZM50.6915 9.03437C48.1865 9.03437 46.2241 10.9597 46.2241 13.4181C46.2241 15.8502 48.1736 17.7546 50.6614 17.7546C53.175 17.7546 55.1431 15.8359 55.1431 13.3871C55.1431 10.9465 53.1879 9.03466 50.6915 9.03466V9.03437ZM50.6915 15.8717C49.3593 15.8717 48.3544 14.8027 48.3544 13.3863C48.3544 11.9635 49.3249 10.9311 50.6614 10.9311C52.0022 10.9311 53.0128 11.9996 53.0128 13.4174C53.0128 14.84 52.0366 15.8717 50.6915 15.8717ZM60.492 9.20404H58.4463V7.11676C58.4463 7.04196 58.386 6.98091 58.3114 6.98091H56.4524C56.3777 6.98091 56.316 7.04196 56.316 7.11676V9.20404H55.4231C55.3484 9.20404 55.2881 9.26508 55.2881 9.34003V10.9345C55.2881 11.0093 55.3484 11.0705 55.4231 11.0705H56.316V15.1968C56.316 16.8633 57.1472 17.7088 58.788 17.7088C59.4541 17.7088 60.0068 17.5712 60.5279 17.276C60.5709 17.2531 60.5968 17.2072 60.5968 17.1585V15.6396C60.5968 15.5937 60.5724 15.5493 60.5322 15.5249C60.492 15.4991 60.4417 15.4977 60.4001 15.5192C60.0426 15.6983 59.6967 15.7814 59.3091 15.7814C58.7133 15.7814 58.4463 15.5106 58.4463 14.9059V11.0712H60.492C60.5666 11.0712 60.6269 11.0102 60.6269 10.9352V9.34089C60.6298 9.26594 60.5695 9.2049 60.4934 9.2049L60.492 9.20404ZM67.618 9.21221V8.95585C67.618 8.20167 67.908 7.86535 68.5569 7.86535C68.9445 7.86535 69.256 7.94216 69.6048 8.05823C69.6479 8.0717 69.6924 8.06496 69.7268 8.03931C69.7627 8.01366 69.7828 7.97253 69.7828 7.92897V6.36559C69.7828 6.30583 69.7455 6.25296 69.6866 6.23533C69.3191 6.12599 68.8483 6.01379 68.142 6.01379C66.4265 6.01379 65.5178 6.97876 65.5178 8.80338V9.19601H64.6249C64.5503 9.19601 64.4885 9.25706 64.4885 9.33186V10.9345C64.4885 11.0093 64.5503 11.0705 64.6249 11.0705H65.5178V17.4336C65.5178 17.5096 65.5795 17.5698 65.6542 17.5698H67.5118C67.5879 17.5698 67.6482 17.5096 67.6482 17.4336V11.0709H69.3837L72.0424 17.4336C71.7409 18.1014 71.4437 18.2347 71.0389 18.2347C70.7116 18.2347 70.3656 18.1372 70.0139 17.9438C69.9809 17.9266 69.9407 17.9237 69.9063 17.9338C69.8704 17.9467 69.8402 17.9725 69.8259 18.0068L69.1957 19.3868C69.1655 19.4527 69.1914 19.5287 69.2545 19.5631C69.912 19.9184 70.5049 20.0703 71.2385 20.0703C72.6108 20.0703 73.3702 19.4312 74.0378 17.7145L77.262 9.39792C77.2792 9.35608 77.2735 9.30879 77.2476 9.27167C77.2232 9.23485 77.1816 9.21264 77.1371 9.21264H75.202C75.1431 9.21264 75.0915 9.24946 75.0728 9.30377L73.0903 14.9546L70.9198 9.30005C70.8997 9.24746 70.8494 9.21264 70.7934 9.21264H67.618V9.21221ZM63.4865 9.20404H61.6275C61.5528 9.20404 61.4911 9.26508 61.4911 9.34003V17.4336C61.4911 17.5096 61.5528 17.5698 61.6275 17.5698H63.4865C63.5612 17.5698 63.6229 17.5096 63.6229 17.4336V9.3406C63.6229 9.26566 63.5626 9.20461 63.4865 9.20461V9.20404ZM62.5678 5.51855C61.8313 5.51855 61.2341 6.11353 61.2341 6.8485C61.2341 7.58391 61.8313 8.1796 62.5678 8.1796C63.3042 8.1796 63.9 7.58391 63.9 6.8485C63.9 6.11367 63.3028 5.51855 62.5678 5.51855ZM78.8497 11.8065C78.1147 11.8065 77.5419 11.2168 77.5419 10.5007C77.5419 9.78468 78.1219 9.18828 78.8569 9.18828C79.5919 9.18828 80.1647 9.7778 80.1647 10.4933C80.1647 11.2094 79.5847 11.8065 78.8497 11.8065ZM78.8569 9.3181C78.1865 9.3181 77.6797 9.84974 77.6797 10.5007C77.6797 11.1515 78.1836 11.6759 78.8497 11.6759C79.5201 11.6759 80.0269 11.1447 80.0269 10.4933C80.0269 9.84257 79.523 9.3181 78.8569 9.3181ZM79.1469 10.6276L79.5172 11.1446H79.2043L78.8712 10.6703H78.5856V11.1446H78.3243V9.77408H78.9358C79.256 9.77408 79.4656 9.93701 79.4656 10.2113C79.467 10.436 79.3364 10.5733 79.1483 10.6276H79.1469ZM78.9258 10.0092H78.5856V10.4427H78.9258C79.0952 10.4427 79.1971 10.3597 79.1971 10.2258C79.1971 10.0847 79.0952 10.0092 78.9258 10.0092Z" fill="white"></path>
</svg>