<svg width="18" height="16" viewBox="0 0 18 16" fill="none" xmlns="http://www.w3.org/2000/svg" id="svg-891863313_1241">
<path d="M5.66262 15.5247C12.4534 15.5247 16.1687 9.89725 16.1687 5.01861C16.1687 4.86041 16.1652 4.69869 16.1582 4.54049C16.8809 4.01782 17.5046 3.37041 18 2.62869C17.3269 2.92817 16.6122 3.12376 15.8804 3.20877C16.651 2.7469 17.2279 2.02132 17.5043 1.16654C16.7794 1.59614 15.9867 1.89918 15.1601 2.06268C14.6031 1.47089 13.8667 1.07906 13.0648 0.947757C12.2628 0.816458 11.4399 0.953007 10.7233 1.33629C10.0067 1.71958 9.43635 2.32825 9.10039 3.0682C8.76442 3.80816 8.68157 4.63818 8.86465 5.42994C7.39687 5.35629 5.96095 4.975 4.64999 4.31079C3.33902 3.64659 2.18227 2.7143 1.25473 1.57436C0.7833 2.38715 0.639042 3.34895 0.851273 4.26429C1.0635 5.17962 1.6163 5.9798 2.3973 6.50221C1.81097 6.48359 1.23748 6.32573 0.724219 6.04166V6.08736C0.723693 6.94033 1.01857 7.76716 1.55873 8.4273C2.09889 9.08743 2.85099 9.54014 3.68719 9.70846C3.14404 9.85707 2.57399 9.87872 2.02113 9.77174C2.25709 10.5053 2.71618 11.1469 3.33433 11.607C3.95248 12.0671 4.69884 12.3227 5.46926 12.3381C4.16132 13.3656 2.54563 13.9228 0.882422 13.9202C0.587465 13.9197 0.292799 13.9016 0 13.866C1.68964 14.95 3.65515 15.5258 5.66262 15.5247Z" fill="white"></path>
</svg>