<svg width="52" height="18" viewBox="0 0 52 18" fill="none" xmlns="http://www.w3.org/2000/svg" id="svg578311259_3654">
<path d="M2.98313 12.8554C3.20225 13.4369 3.50561 13.934 3.89327 14.3469C4.28093 14.7599 4.74019 15.0759 5.27105 15.295C5.80197 15.5141 6.37921 15.6236 7.00282 15.6236C7.6096 15.6236 8.17839 15.5099 8.70931 15.2823C9.24023 15.0547 9.70369 14.7345 10.0997 14.3217C10.4958 13.9087 10.8034 13.4158 11.0225 12.8427C11.2416 12.2697 11.3512 11.6293 11.3512 10.9214V0H14.0056V17.6966H11.3764V16.0534C10.7866 16.6769 10.0913 17.1573 9.29074 17.4944C8.49014 17.8315 7.62644 18 6.69947 18C5.7556 18 4.875 17.8356 4.05756 17.507C3.24018 17.1784 2.53226 16.7107 1.93399 16.1039C1.33572 15.4972 0.86376 14.7683 0.518278 13.9172C0.172741 13.066 0 12.118 0 11.073V0H2.65449V10.9214C2.65449 11.6293 2.76402 12.2739 2.98313 12.8554ZM18.5813 0V6.44662C19.1711 5.85674 19.8538 5.38909 20.629 5.04355C21.4043 4.69801 22.247 4.52527 23.1571 4.52527C24.101 4.52527 24.9857 4.70221 25.8116 5.05614C26.6374 5.41006 27.3537 5.89041 27.9604 6.49719C28.5672 7.10396 29.0476 7.82021 29.4015 8.64604C29.7554 9.47193 29.9324 10.3483 29.9324 11.2753C29.9324 12.2022 29.7554 13.0744 29.4015 13.8918C29.0476 14.7093 28.5672 15.4214 27.9604 16.028C27.3537 16.6348 26.6374 17.1152 25.8116 17.4691C24.9857 17.823 24.1009 17.9999 23.1571 17.9999C22.247 17.9999 21.4001 17.8272 20.6164 17.4817C19.8327 17.1362 19.1459 16.6685 18.556 16.0786V17.6966H16.0279V0H18.5813ZM18.872 13.0197C19.0995 13.559 19.4155 14.0309 19.82 14.4354C20.2245 14.8399 20.6964 15.1602 21.2358 15.3961C21.7751 15.6321 22.3566 15.7501 22.9802 15.7501C23.5869 15.7501 24.1599 15.6321 24.6992 15.3961C25.2386 15.1602 25.7062 14.84 26.1024 14.4354C26.4984 14.031 26.8144 13.559 27.0504 13.0197C27.2863 12.4804 27.4043 11.8989 27.4043 11.2753C27.4043 10.6517 27.2863 10.066 27.0504 9.51825C26.8144 8.97049 26.4984 8.49439 26.1024 8.08989C25.7063 7.68545 25.2386 7.3694 24.6992 7.14189C24.1599 6.91438 23.5869 6.80055 22.9802 6.80055C22.3734 6.80055 21.8004 6.91433 21.2611 7.14189C20.7218 7.36945 20.2499 7.68545 19.8453 8.08989C19.4409 8.49439 19.1206 8.97049 18.8847 9.51825C18.6487 10.066 18.5308 10.6517 18.5308 11.2753C18.5307 11.8989 18.6445 12.4804 18.872 13.0197ZM31.3731 8.67138C31.7102 7.86239 32.1737 7.15034 32.7636 6.53517C33.3534 5.92001 34.0529 5.43546 34.8619 5.08153C35.6709 4.7276 36.5473 4.55067 37.4911 4.55067C38.4181 4.55067 39.2777 4.71921 40.0698 5.05625C40.8619 5.39334 41.5445 5.86105 42.1175 6.45937C42.6906 7.05765 43.1372 7.76556 43.4574 8.58294C43.7776 9.40039 43.9377 10.2894 43.9377 11.2501V12.0844H33.4462C33.5305 12.6069 33.699 13.0914 33.9518 13.538C34.2047 13.9846 34.5206 14.3723 34.8998 14.7009C35.2791 15.0296 35.7088 15.2867 36.1892 15.472C36.6695 15.6574 37.1793 15.7501 37.7187 15.7501C39.2524 15.7501 40.4912 15.1181 41.435 13.854L43.2805 15.2191C42.6401 16.0787 41.848 16.7529 40.9041 17.2416C39.9603 17.7304 38.8985 17.9748 37.7187 17.9748C36.758 17.9748 35.8606 17.8062 35.0263 17.4691C34.192 17.1321 33.4673 16.6601 32.8522 16.0534C32.237 15.4466 31.7525 14.7345 31.3985 13.9172C31.0446 13.0998 30.8676 12.2107 30.8676 11.25C30.8675 10.3399 31.0361 9.48038 31.3731 8.67138ZM34.9251 7.67275C34.2088 8.27108 33.7327 9.06743 33.4968 10.0618H41.3592C41.14 9.06743 40.6723 8.27108 39.956 7.67275C39.2397 7.07448 38.4013 6.77532 37.4406 6.77532C36.4799 6.77532 35.6414 7.07448 34.9251 7.67275ZM48.7157 7.96347C48.1764 8.55335 47.9067 9.3539 47.9067 10.3652V17.6967H45.3533V4.8034H47.8813V6.39611C48.2016 5.87363 48.6187 5.46069 49.1328 5.15733C49.6468 4.85391 50.2578 4.70221 50.9657 4.70221H51.8505V7.07862H50.7887C49.946 7.07868 49.255 7.37359 48.7157 7.96347Z" fill="white"></path>
</svg>