<svg width="14" height="16" viewBox="0 0 14 16" fill="none" xmlns="http://www.w3.org/2000/svg" id="svg1475473783_1372">
<mask id="svg1475473783_1372_mask0_652_1552" style="mask-type:alpha" maskUnits="userSpaceOnUse" x="0" y="0" width="14" height="16">
<path fill-rule="evenodd" clip-rule="evenodd" d="M6.58054 0.946903C6.63432 0.905869 6.70889 0.905869 6.76267 0.946903L12.2854 5.16119C12.3641 5.22127 12.3641 5.33978 12.2854 5.39986L6.6716 9.68363L1.05782 5.39986C0.979088 5.33978 0.979088 5.22126 1.05782 5.16119L6.58054 0.946903ZM11.948 9.78079L9.90659 8.22301L9.86723 8.19297L7.78642 9.78079H11.948ZM10.4883 7.71904L12.7425 9.43918C13.2165 9.80084 13.2165 10.5143 12.7425 10.8759L7.21979 15.0902C6.89607 15.3372 6.44714 15.3372 6.12342 15.0902L0.6007 10.8759C0.126752 10.5143 0.126752 9.80084 0.6007 9.43918L2.85491 7.71904L0.6007 5.9989C0.126753 5.63724 0.126752 4.92381 0.6007 4.56215L6.12342 0.347862C6.44713 0.100843 6.89607 0.100843 7.21979 0.347862L12.7425 4.56215C13.2165 4.92381 13.2165 5.63724 12.7425 5.9989L10.4883 7.71904ZM3.47598 8.19297L3.43662 8.22301L1.05782 10.0382C0.979088 10.0983 0.979088 10.2168 1.05782 10.2769L6.58054 14.4912C6.63432 14.5322 6.70889 14.5322 6.76267 14.4912L11.948 10.5343H6.6716H6.54427L6.44304 10.4571L3.47598 8.19297Z" fill="white"></path>
</mask>
<g mask="url(#svg1475473783_1372_mask0_652_1552)">
<path d="M0.186584 0.00891113H13.3881V16.0504H0.186584V0.00891113Z" fill="white"></path>
</g>
</svg>