<svg width="121" height="9" viewBox="0 0 121 9" fill="none" xmlns="http://www.w3.org/2000/svg" id="svg-442465453_2563">
<path d="M112.979 8.8604H113.939V1.69982L119.581 8.8604H120.369V0.123175H119.408V7.12774L113.906 0.123175H112.987V8.8604H112.979ZM101.523 5.65785L103.518 1.21533L105.506 5.65785H101.523ZM99.0841 8.8604H100.094L101.129 6.55292H105.883L106.91 8.8604H107.969L103.987 0.0574818H103.067L99.0841 8.8604ZM85.7152 8.8604H86.676V1.79836L89.8622 6.46259H89.9114L93.0976 1.78193V8.8604H94.083V0.123175H93.0812L89.895 4.89416L86.717 0.123175H85.7152V8.8604ZM76.4522 9C78.6366 9 80.0983 7.67792 80.0983 5.1323V0.123175H79.1129V5.2062C79.1129 7.11953 78.0864 8.0885 76.4769 8.0885C74.8181 8.0885 73.808 7.0292 73.808 5.14051V0.123175H72.8226V5.2062C72.8226 7.67792 74.2925 9 76.4522 9ZM60.1846 8.8604H61.17V4.92701H66.2121V8.8604H67.1975V0.123175H66.2121V4.0073H61.17V0.123175H60.1846V8.8604ZM48.8604 4.58212V1.03467H51.5539C52.9664 1.03467 53.7875 1.68339 53.7875 2.75912V2.78376C53.7875 3.90876 52.8514 4.58212 51.5375 4.58212H48.8604ZM47.875 8.8604H48.8604V5.46898H51.3568L53.8943 8.8604H55.1014L52.4162 5.28832C53.7876 5.04197 54.7894 4.18796 54.7894 2.7427V2.71807C54.7894 2.02828 54.543 1.42062 54.116 0.993613C53.5658 0.443431 52.7036 0.123175 51.636 0.123175H47.875V8.8604ZM36.2306 8.8604H42.6112V7.96533H37.2161V4.90237H41.9871V4.0073H37.2161V1.02646H42.5455V0.123175H36.2306V8.8604ZM25.5881 4.87774V1.03467H27.7971C29.2095 1.03467 30.1457 1.68339 30.1457 2.93157V2.9562C30.1457 4.10584 29.1931 4.87774 27.7478 4.87774H25.5881ZM24.6027 8.8604H25.5881V5.78102H27.7067C29.5626 5.78102 31.1393 4.80383 31.1393 2.92336V2.89872C31.1393 1.17427 29.8418 0.131387 27.871 0.131387H24.6027V8.8604ZM15.3397 9C17.5241 9 18.9858 7.67792 18.9858 5.1323V0.123175H18.0004V5.2062C18.0004 7.11953 16.9739 8.0885 15.3644 8.0885C13.7056 8.0885 12.6955 7.0292 12.6955 5.14051V0.123175H11.7101V5.2062C11.7101 7.67792 13.18 9 15.3397 9ZM3.57215 8.98358C5.30485 8.98358 6.55305 8.00639 6.55305 6.51186V6.48723C6.55305 5.14872 5.65796 4.44252 3.70354 4.01551C1.78197 3.60493 1.33032 3.14507 1.33032 2.31569V2.29927C1.33032 1.51095 2.05296 0.886861 3.18619 0.886861C4.08128 0.886861 4.89426 1.17427 5.70723 1.83942L6.28206 1.07573C5.40339 0.361314 4.49188 0 3.21904 0C1.56025 0 0.344897 1.01004 0.344897 2.38139V2.40602C0.344897 3.84307 1.26462 4.49179 3.27652 4.92701C5.10776 5.31296 5.5512 5.77281 5.5512 6.58577V6.6104C5.5512 7.47263 4.77929 8.09671 3.605 8.09671C2.39786 8.09671 1.51919 7.68613 0.607676 6.86496L0 7.58759C1.05112 8.52372 2.18435 8.98358 3.57215 8.98358Z" fill="white"></path>
</svg>